<?xml version="1.0" encoding="UTF-8" standalone="no"?>
<!DOCTYPE svg PUBLIC "-//W3C//DTD SVG 1.1//EN" "http://www.w3.org/Graphics/SVG/1.1/DTD/svg11.dtd">
<svg width="100%" height="100%" viewBox="0 0 955 200" version="1.1" xmlns="http://www.w3.org/2000/svg" xmlns:xlink="http://www.w3.org/1999/xlink" xml:space="preserve" xmlns:serif="http://www.serif.com/" style="fill-rule:evenodd;clip-rule:evenodd;stroke-linejoin:round;stroke-miterlimit:2;">
    <g transform="matrix(4.166667,0,0,4.166667,0,0)">
        <path d="M30,0L60,18.012L60,29.984L30,48L0,29.984L0,18.012L30,0Z" style="fill:rgb(242,246,252);fill-rule:nonzero;"/>
        <path d="M0,18.012L30,0L60,18.012L60,29.984L30,48L0,29.984L0,18.012ZM30,40.357L53.636,26.163L53.636,21.834L53.635,21.833L30,36.024L6.365,21.833L6.364,21.834L6.364,26.163L30,40.357ZM30,29.405L48.122,18.525L43.708,15.876L30,24.106L16.293,15.876L11.878,18.525L30,29.405ZM30,17.488L38.195,12.568L30,7.65L21.805,12.568L30,17.488Z" style="fill:rgb(98,140,207);"/>
        <path d="M30,0L0,18.012L0,29.984L30,48L30,0Z" style="fill-opacity:0.1;fill-rule:nonzero;"/>
    </g>
    <g transform="matrix(4.166667,0,0,4.166667,0,-1)">
        <path d="M81.667,35L81.667,13.024L96.799,13.024L96.799,19.554L89.201,19.554L89.201,22.945L96.014,22.945L96.014,29.192L89.201,29.192L89.201,35L81.667,35ZM99.291,35L99.291,18.267L106.449,18.267L106.449,35L99.291,35ZM98.757,12.428C98.757,10.105 100.39,8.504 102.87,8.504C105.287,8.504 106.951,10.105 106.951,12.428C106.951,14.783 105.287,16.384 102.87,16.384C100.39,16.384 98.757,14.783 98.757,12.428ZM110.021,35L110.021,18.267L115.107,18.267L115.798,20.025C117.116,18.613 119.031,17.828 121.323,17.828C125.655,17.828 128.324,20.59 128.324,25.048L128.324,35L121.166,35L121.166,25.927C121.166,24.389 120.475,23.573 119.219,23.573C117.932,23.573 117.179,24.42 117.179,26.021L117.179,35L110.021,35ZM137.066,35L137.066,19.9L130.693,19.9L130.693,13.024L151.036,13.024L151.036,19.9L144.663,19.9L144.663,35L137.066,35ZM152.482,35L152.482,18.267L157.568,18.267L158.353,20.308C159.451,18.895 160.99,18.267 163.156,18.267L165.291,18.267L165.291,24.64L163.093,24.64C160.644,24.64 159.64,25.802 159.64,28.219L159.64,35L152.482,35ZM172.479,35.408C168.587,35.408 166.169,33.399 166.169,30.165C166.169,27.089 168.367,25.048 171.851,25.048L177.188,25.048L177.188,24.044C177.188,23.196 176.404,22.568 175.368,22.568C174.394,22.568 173.672,23.133 173.578,23.95L166.985,23.95C167.488,19.931 170.407,17.828 175.399,17.828C181.05,17.828 184.158,20.528 184.158,25.55L184.158,35L179.041,35L178.319,33.179C176.906,34.623 174.897,35.408 172.479,35.408ZM173.013,29.663C173.013,30.479 173.704,30.982 174.771,30.982C176.247,30.982 177.283,30.04 177.283,28.564L177.283,28.345L174.771,28.345C173.704,28.345 173.013,28.847 173.013,29.663ZM196.128,35.471C190.352,35.471 186.396,31.861 186.396,26.649C186.396,21.438 190.383,17.828 196.128,17.828C201.402,17.828 205.169,20.747 205.766,25.331L199.142,25.331C198.577,24.201 197.572,23.604 196.285,23.604C194.527,23.604 193.365,24.828 193.365,26.649C193.365,28.47 194.527,29.663 196.285,29.663C197.666,29.663 198.734,28.941 199.205,27.717L205.86,27.717C205.264,32.457 201.496,35.471 196.128,35.471ZM208.371,35L208.371,11.769L215.529,11.769L215.529,23.416L215.906,23.416C217.381,23.416 217.915,23.07 218.26,21.909L219.39,18.267L226.893,18.267L224.602,24.703C224.256,25.613 223.848,26.398 223.346,27.057L227.647,35L219.547,35L216.847,29.443L215.529,29.443L215.529,35L208.371,35Z" style="fill:rgb(204,220,241);fill-rule:nonzero;"/>
    </g>
</svg>
