<svg width="517" height="441" viewBox="0 0 517 441" fill="none" xmlns="http://www.w3.org/2000/svg">
<g filter="url(#filter0_d_1_1669)">
<rect x="4.63422" y="3.47565" width="507.446" height="430.982" rx="9.26842" fill="#181818"/>
</g>
<path d="M36.4923 55.2809H32.2103L39.6783 38.2039H45.1328L52.6518 55.2809H48.2678L46.6621 51.5087H38.1235L36.4923 55.2809ZM41.2076 44.3465L39.6018 48.0678H45.1837L43.578 44.3465L42.533 41.6958H42.2526L41.2076 44.3465ZM59.9922 55.5358C55.6847 55.5358 53.3143 53.8536 53.3143 50.897V50.8205H57.1375V51.0499C57.1375 52.1969 57.8512 52.5027 60.0177 52.5027C62.0567 52.5027 62.541 52.1714 62.541 51.4067C62.541 50.6931 62.1587 50.4892 60.6549 50.2853L57.061 49.852C54.5122 49.5716 53.0849 48.4246 53.0849 46.2836C53.0849 44.0407 54.9965 42.2565 59.3805 42.2565C63.5605 42.2565 65.9309 43.8368 65.9309 46.9463V47.0228H62.1077V46.8698C62.1077 45.8248 61.5979 45.2896 59.253 45.2896C57.3414 45.2896 56.8571 45.6209 56.8571 46.4366C56.8571 47.0992 57.214 47.3796 58.8962 47.5835L61.6234 47.9149C65.0388 48.2972 66.3132 49.4442 66.3132 51.5597C66.3132 53.9556 63.9428 55.5358 59.9922 55.5358ZM74.3044 55.5358C69.9969 55.5358 67.6265 53.8536 67.6265 50.897V50.8205H71.4497V51.0499C71.4497 52.1969 72.1634 52.5027 74.3299 52.5027C76.3689 52.5027 76.8532 52.1714 76.8532 51.4067C76.8532 50.6931 76.4709 50.4892 74.9671 50.2853L71.3732 49.852C68.8244 49.5716 67.3971 48.4246 67.3971 46.2836C67.3971 44.0407 69.3087 42.2565 73.6927 42.2565C77.8727 42.2565 80.2431 43.8368 80.2431 46.9463V47.0228H76.4199V46.8698C76.4199 45.8248 75.9101 45.2896 73.5652 45.2896C71.6536 45.2896 71.1693 45.6209 71.1693 46.4366C71.1693 47.0992 71.5262 47.3796 73.2084 47.5835L75.9356 47.9149C79.351 48.2972 80.6254 49.4442 80.6254 51.5597C80.6254 53.9556 78.255 55.5358 74.3044 55.5358ZM88.9479 55.5358C84.6914 55.5358 81.7857 53.4458 81.7857 48.9089C81.7857 44.8308 84.6659 42.2565 88.8715 42.2565C93.0515 42.2565 95.8297 44.4485 95.8297 48.4501C95.8297 48.9089 95.7788 49.2402 95.7278 49.6735H85.3286C85.4306 51.6361 86.3481 52.4772 88.8205 52.4772C91.0889 52.4772 91.8791 51.891 91.8791 50.795V50.5401H95.7023V50.8205C95.7023 53.5987 93.0005 55.5358 88.9479 55.5358ZM88.795 45.2386C86.5265 45.2386 85.558 46.0033 85.3796 47.66H92.1594C92.0575 45.9778 91.038 45.2386 88.795 45.2386ZM106.448 55.2809H103.288C100.306 55.2809 98.496 53.8791 98.496 50.6676V45.6719H96.4825V42.5114H98.496V40.039H102.319V42.5114H106.448V45.6719H102.319V50.2343C102.319 51.5087 102.804 51.84 104.154 51.84H106.448V55.2809ZM114.329 55.5358C110.021 55.5358 107.651 53.8536 107.651 50.897V50.8205H111.474V51.0499C111.474 52.1969 112.188 52.5027 114.354 52.5027C116.393 52.5027 116.878 52.1714 116.878 51.4067C116.878 50.6931 116.495 50.4892 114.991 50.2853L111.398 49.852C108.849 49.5716 107.421 48.4246 107.421 46.2836C107.421 44.0407 109.333 42.2565 113.717 42.2565C117.897 42.2565 120.268 43.8368 120.268 46.9463V47.0228H116.444V46.8698C116.444 45.8248 115.935 45.2896 113.59 45.2896C111.678 45.2896 111.194 45.6209 111.194 46.4366C111.194 47.0992 111.551 47.3796 113.233 47.5835L115.96 47.9149C119.375 48.2972 120.65 49.4442 120.65 51.5597C120.65 53.9556 118.279 55.5358 114.329 55.5358Z" fill="#FEFEFE"/>
<path d="M38.2624 113.16H37.0946V109.3L32.3746 102.293H33.7858L36.7702 106.721L37.6623 108.051H37.7596L38.6355 106.721L41.6037 102.293H43.0148L38.2624 109.3V113.16ZM48.145 113.322C45.5336 113.322 43.7981 111.587 43.7981 109.154C43.7981 106.721 45.5336 104.985 48.145 104.985C50.7726 104.985 52.5081 106.721 52.5081 109.154C52.5081 111.587 50.7726 113.322 48.145 113.322ZM48.145 112.284C50.3509 112.284 51.3727 111.1 51.3727 109.154C51.3727 107.223 50.3509 106.023 48.145 106.023C45.9391 106.023 44.9335 107.223 44.9335 109.154C44.9335 111.1 45.9391 112.284 48.145 112.284ZM57.6875 113.322C55.4005 113.322 54.2814 111.733 54.2814 109.835V105.147H55.433V109.656C55.433 111.327 56.2439 112.284 58.093 112.284C60.0556 112.284 61.0774 111.1 61.0774 109.04V105.147H62.229V113.16H61.191V110.662H61.1099C60.8341 112.024 59.6825 113.322 57.6875 113.322ZM65.6076 113.16H64.456V105.147H65.4941V107.337H65.5752C65.8185 106.056 66.7268 104.985 68.3974 104.985C70.2465 104.985 71.0575 106.348 71.0575 107.84V108.635H69.9059V108.018C69.9059 106.656 69.3382 105.991 67.9433 105.991C66.3213 105.991 65.6076 107.013 65.6076 108.813V113.16ZM80.8634 113.16H79.1279C77.5383 113.16 76.5165 112.495 76.5165 110.613V106.137H75.0892V105.147H76.5165V103.233H77.6843V105.147H80.8634V106.137H77.6843V110.678C77.6843 111.797 78.2358 112.106 79.4036 112.106H80.8634V113.16ZM86.3411 113.322C83.7297 113.322 81.9942 111.587 81.9942 109.154C81.9942 106.721 83.7297 104.985 86.3411 104.985C88.9687 104.985 90.7042 106.721 90.7042 109.154C90.7042 111.587 88.9687 113.322 86.3411 113.322ZM86.3411 112.284C88.5469 112.284 89.5688 111.1 89.5688 109.154C89.5688 107.223 88.5469 106.023 86.3411 106.023C84.1352 106.023 83.1295 107.223 83.1295 109.154C83.1295 111.1 84.1352 112.284 86.3411 112.284ZM97.4406 113.16H95.7051C94.1156 113.16 93.0938 112.495 93.0938 110.613V106.137H91.6664V105.147H93.0938V103.233H94.2616V105.147H97.4406V106.137H94.2616V110.678C94.2616 111.797 94.813 112.106 95.9809 112.106H97.4406V113.16ZM101.215 113.322C99.6419 113.322 98.5714 112.576 98.5714 111.278C98.5714 109.965 99.6582 109.397 101.15 109.235L104.962 108.813V108.197C104.962 106.64 104.281 106.023 102.529 106.023C100.81 106.023 99.9014 106.64 99.9014 108.051V108.116H98.7498V108.051C98.7498 106.364 100.145 104.985 102.61 104.985C105.043 104.985 106.081 106.38 106.081 108.148V113.16H105.043V111.003H104.962C104.492 112.479 103.081 113.322 101.215 113.322ZM99.723 111.197C99.723 112.008 100.258 112.43 101.475 112.43C103.421 112.43 104.962 111.57 104.962 109.64V109.575L101.507 109.965C100.307 110.078 99.723 110.37 99.723 111.197ZM109.415 113.16H108.264V102.293H109.415V113.16ZM115.948 113.16H114.91V102.293H116.061V107.386H116.142C116.483 106.007 117.635 104.985 119.565 104.985C122.079 104.985 123.457 106.721 123.457 109.154C123.457 111.587 122.079 113.322 119.467 113.322C117.683 113.322 116.402 112.398 116.029 110.792H115.948V113.16ZM116.061 109.283C116.061 111.181 117.262 112.268 119.192 112.268C121.106 112.268 122.29 111.473 122.29 109.154C122.29 106.834 121.073 106.056 119.224 106.056C117.197 106.056 116.061 107.159 116.061 109.137V109.283ZM127.385 113.322C125.811 113.322 124.741 112.576 124.741 111.278C124.741 109.965 125.827 109.397 127.32 109.235L131.131 108.813V108.197C131.131 106.64 130.45 106.023 128.698 106.023C126.979 106.023 126.071 106.64 126.071 108.051V108.116H124.919V108.051C124.919 106.364 126.314 104.985 128.779 104.985C131.212 104.985 132.25 106.38 132.25 108.148V113.16H131.212V111.003H131.131C130.661 112.479 129.25 113.322 127.385 113.322ZM125.892 111.197C125.892 112.008 126.428 112.43 127.644 112.43C129.59 112.43 131.131 111.57 131.131 109.64V109.575L127.676 109.965C126.476 110.078 125.892 110.37 125.892 111.197ZM135.585 113.16H134.433V102.293H135.585V113.16ZM140.034 113.322C138.46 113.322 137.39 112.576 137.39 111.278C137.39 109.965 138.476 109.397 139.969 109.235L143.78 108.813V108.197C143.78 106.64 143.099 106.023 141.347 106.023C139.628 106.023 138.72 106.64 138.72 108.051V108.116H137.568V108.051C137.568 106.364 138.963 104.985 141.428 104.985C143.861 104.985 144.899 106.38 144.899 108.148V113.16H143.861V111.003H143.78C143.31 112.479 141.899 113.322 140.034 113.322ZM138.541 111.197C138.541 112.008 139.077 112.43 140.293 112.43C142.239 112.43 143.78 111.57 143.78 109.64V109.575L140.326 109.965C139.125 110.078 138.541 110.37 138.541 111.197ZM148.234 113.16H147.082V105.147H148.12V107.661H148.201C148.477 106.299 149.612 104.985 151.607 104.985C153.862 104.985 154.981 106.591 154.981 108.489V113.16H153.83V108.651C153.83 106.996 153.035 106.039 151.202 106.039C149.256 106.039 148.234 107.223 148.234 109.283V113.16ZM160.973 113.322C158.41 113.322 156.739 111.587 156.739 109.154C156.739 106.721 158.41 104.985 160.973 104.985C163.211 104.985 164.963 106.315 164.963 108.245V108.375H163.827V108.278C163.827 106.85 162.789 106.039 160.956 106.039C158.815 106.039 157.891 107.191 157.891 109.154C157.891 111.116 158.815 112.268 160.956 112.268C162.789 112.268 163.827 111.457 163.827 110.029V109.932H164.963V110.062C164.963 111.992 163.211 113.322 160.973 113.322ZM170.607 113.322C168.028 113.322 166.39 111.7 166.39 109.154C166.39 106.721 168.012 104.985 170.591 104.985C172.943 104.985 174.614 106.348 174.614 108.732C174.614 109.024 174.581 109.267 174.532 109.478H167.477C167.542 111.278 168.466 112.365 170.591 112.365C172.473 112.365 173.348 111.668 173.348 110.5V110.386H174.5V110.5C174.5 112.17 172.846 113.322 170.607 113.322ZM170.575 105.942C168.499 105.942 167.558 107.013 167.477 108.764H173.527C173.527 108.683 173.527 108.602 173.527 108.521C173.527 106.834 172.456 105.942 170.575 105.942Z" fill="#F6F6F6"/>
<path d="M42.9916 152.831H39.4233V150.435C35.3707 150.002 33.1277 148.014 33.1277 144.522V144.369H36.9509V144.828C36.9509 146.408 37.7411 147.045 41.2074 147.045C44.266 147.045 44.9797 146.587 44.9797 145.44C44.9797 144.395 44.3935 144.012 42.6348 143.706L37.843 143.018C34.7844 142.534 32.9748 141.005 32.9748 138.226C32.9748 135.881 34.7334 133.409 39.4233 133.001V130.656H42.9916V133.103C46.7384 133.715 48.4971 135.907 48.4971 138.966V139.118H44.6483V138.762C44.6483 137.13 43.8072 136.442 40.4173 136.442C37.6646 136.442 36.8235 136.977 36.8235 138.073C36.8235 139.067 37.3842 139.424 38.8116 139.679L43.6033 140.444C47.4266 141.056 48.8029 142.916 48.8029 145.261C48.8029 147.708 47.1207 149.951 42.9916 150.435V152.831ZM65.092 150.282H49.9266V147.835C49.9266 144.828 51.2265 143.273 54.8203 142.075L59.2043 140.648C60.7336 140.113 61.2943 139.603 61.2943 138.481C61.2943 137.181 60.5806 136.442 57.7769 136.442C54.6419 136.442 53.6988 137.385 53.6988 139.271V139.603H49.9521V139.271C49.9521 135.958 52.2205 132.95 57.9044 132.95C63.053 132.95 65.143 135.295 65.143 138.532C65.143 141.565 63.1549 143.069 60.1219 143.91L56.4006 144.93C54.7439 145.44 53.9537 145.924 53.9537 147.275L58.4141 146.841H65.092V150.282ZM74.7152 150.537C69.3627 150.537 66.559 148.728 66.559 144.981V144.751H70.5097V144.981C70.5097 146.434 71.5292 147.045 74.7662 147.045C77.6973 147.045 78.5894 146.357 78.5894 144.496C78.5894 142.61 77.6973 141.922 74.7917 141.922C72.4468 141.922 71.1724 142.203 70.5606 143.095L70.2803 143.069V143.095L66.6864 142.993L67.655 133.205H81.7245V136.646H71.0449L70.5097 141.107L70.7391 141.132C71.3508 140.138 73.1604 138.889 76.3465 138.889C80.552 138.889 82.642 140.928 82.642 144.445C82.642 148.141 80.1442 150.537 74.7152 150.537ZM85.7341 153.876H84.3832V151.506H85.6321C86.1419 151.506 86.3968 151.378 86.3968 150.716V150.282H84.2303V145.822H89.1495V150.69C89.1495 152.831 87.9006 153.876 85.7341 153.876ZM98.8077 150.537C94.1179 150.537 91.1358 148.294 91.1358 144.802V144.598H95.3923V144.802C95.3923 146.281 96.3354 146.867 98.8077 146.867C101.815 146.867 103.013 145.847 103.013 142.33V141.209H102.733C102.019 142.61 100.184 143.757 97.1255 143.757C92.9199 143.757 90.575 142.05 90.575 138.558C90.575 135.142 93.2513 132.95 98.3234 132.95C104.543 132.95 107.091 135.652 107.091 141.642C107.091 147.632 103.803 150.537 98.8077 150.537ZM98.5273 141.107C101.713 141.107 102.707 140.393 102.707 138.838C102.707 137.36 101.688 136.621 98.5273 136.621C95.4943 136.621 94.5767 137.334 94.5767 138.838C94.5767 140.418 95.4688 141.107 98.5273 141.107ZM117.034 150.537C111.529 150.537 108.496 147.071 108.496 141.744C108.496 136.442 111.529 132.95 117.034 132.95C122.514 132.95 125.573 136.442 125.573 141.744C125.573 147.071 122.514 150.537 117.034 150.537ZM117.034 146.816C120.271 146.816 121.469 145.414 121.469 141.744C121.469 138.073 120.271 136.672 117.034 136.672C113.772 136.672 112.599 138.073 112.599 141.744C112.599 145.414 113.772 146.816 117.034 146.816ZM134.64 150.282H130.817V137.946H126.433V135.321H127.147C129.033 135.321 130.307 134.887 131.148 133.205H134.64V150.282ZM141.345 150.282H136.426V145.822H141.345V150.282ZM151.284 150.537C145.779 150.537 142.746 147.071 142.746 141.744C142.746 136.442 145.779 132.95 151.284 132.95C156.764 132.95 159.823 136.442 159.823 141.744C159.823 147.071 156.764 150.537 151.284 150.537ZM151.284 146.816C154.521 146.816 155.719 145.414 155.719 141.744C155.719 138.073 154.521 136.672 151.284 136.672C148.022 136.672 146.849 138.073 146.849 141.744C146.849 145.414 148.022 146.816 151.284 146.816ZM166.112 150.282H161.193V145.822H166.112V150.282Z" fill="#FEFEFE"/>
<path d="M177.811 150.282H175.031V147.91H167.153V146.019L174.586 137.863H177.811V145.407H179.702V147.91H177.811V150.282ZM171.027 145.407H175.031V141.069H174.827L171.027 145.203V145.407ZM186.117 150.282H183.336V141.31H180.148V139.401H180.667C182.039 139.401 182.966 139.086 183.577 137.863H186.117V150.282Z" fill="#DADADA"/>
<path d="M38.1952 187.698H36.2488V186.391C34.0383 186.154 32.8149 185.07 32.8149 183.165V183.082H34.9003V183.332C34.9003 184.194 35.3313 184.542 37.222 184.542C38.8903 184.542 39.2796 184.291 39.2796 183.666C39.2796 183.096 38.9599 182.887 38.0006 182.72L35.3869 182.345C33.7186 182.081 32.7315 181.247 32.7315 179.731C32.7315 178.452 33.6908 177.104 36.2488 176.881V175.602H38.1952V176.937C40.2389 177.271 41.1982 178.466 41.1982 180.135V180.218H39.0989V180.023C39.0989 179.134 38.6401 178.758 36.791 178.758C35.2896 178.758 34.8308 179.05 34.8308 179.648C34.8308 180.19 35.1366 180.385 35.9152 180.524L38.5289 180.941C40.6143 181.275 41.365 182.289 41.365 183.568C41.365 184.903 40.4474 186.127 38.1952 186.391V187.698ZM46.3897 186.307H44.3043V179.578H41.913V178.146H42.3023C43.3311 178.146 44.0262 177.91 44.485 176.993H46.3897V186.307ZM48.3 188.268H47.5631V186.975H48.2444C48.5224 186.975 48.6614 186.905 48.6614 186.544V186.307H47.4797V183.874H50.1629V186.53C50.1629 187.698 49.4817 188.268 48.3 188.268ZM55.5886 186.446C52.669 186.446 51.1398 185.459 51.1398 183.416V183.29H53.2947V183.416C53.2947 184.208 53.8508 184.542 55.6164 184.542C57.2152 184.542 57.7018 184.166 57.7018 183.151C57.7018 182.123 57.2152 181.747 55.6303 181.747C54.3513 181.747 53.6561 181.9 53.3225 182.387L53.1695 182.373V182.387L51.2093 182.331L51.7376 176.993H59.4118V178.869H53.5866L53.2947 181.302L53.4198 181.316C53.7535 180.774 54.7405 180.093 56.4784 180.093C58.7723 180.093 59.9123 181.205 59.9123 183.124C59.9123 185.139 58.5499 186.446 55.5886 186.446ZM69.0692 186.307H60.7972V184.973C60.7972 183.332 61.5062 182.484 63.4665 181.831L65.8577 181.052C66.6919 180.76 66.9977 180.482 66.9977 179.87C66.9977 179.161 66.6085 178.758 65.0792 178.758C63.3692 178.758 62.8548 179.273 62.8548 180.301V180.482H60.8111V180.301C60.8111 178.494 62.0484 176.853 65.1487 176.853C67.957 176.853 69.097 178.133 69.097 179.898C69.097 181.553 68.0126 182.373 66.3582 182.832L64.3284 183.388C63.4248 183.666 62.9938 183.93 62.9938 184.667L65.4267 184.43H69.0692V186.307ZM74.156 186.307H72.0706V179.578H69.6794V178.146H70.0687C71.0975 178.146 71.7926 177.91 72.2514 176.993H74.156V186.307ZM77.9293 186.307H75.2461V183.874H77.9293V186.307ZM86.6638 186.307H84.5784V184.528H78.6698V183.11L84.2447 176.993H86.6638V182.651H88.0819V184.528H86.6638V186.307ZM81.5754 182.651H84.5784V179.398H84.4255L81.5754 182.498V182.651Z" fill="#FEFEFE"/>
<g opacity="0.8" filter="url(#filter1_d_1_1669)">
<rect x="199.271" y="129.344" width="71.8303" height="28.6342" rx="11.5855" fill="#2A4037"/>
<path d="M212.21 141.631C212.668 140.943 213.679 140.943 214.138 141.631L216.607 145.335C217.121 146.105 216.569 147.136 215.643 147.136H210.704C209.779 147.136 209.227 146.105 209.74 145.335L212.21 141.631Z" fill="#07F8B5"/>
<path d="M227.957 148.823C224.778 148.823 222.75 147.833 222.75 145.676C222.75 144.038 223.918 143.276 225.329 142.984V142.805C223.902 142.562 223.075 141.767 223.075 140.486C223.075 138.734 224.745 137.631 227.941 137.631C231.168 137.631 232.823 138.734 232.823 140.486C232.823 141.767 232.012 142.562 230.552 142.805V142.984C232.077 143.276 233.131 144.038 233.131 145.676C233.131 147.833 231.087 148.823 227.957 148.823ZM227.941 142.221C229.822 142.221 230.39 141.865 230.39 141.102C230.39 140.324 229.903 139.967 227.941 139.967C226.027 139.967 225.508 140.324 225.508 141.102C225.508 141.865 226.092 142.221 227.941 142.221ZM227.941 146.487C230.033 146.487 230.666 146.114 230.666 145.173C230.666 144.265 230.065 143.892 227.941 143.892C225.816 143.892 225.216 144.265 225.216 145.173C225.216 146.114 225.832 146.487 227.941 146.487ZM238.936 148.661H236.503V140.81H233.713V139.14H234.167C235.367 139.14 236.178 138.864 236.714 137.793H238.936V148.661ZM245.541 148.823C242.037 148.823 240.107 146.617 240.107 143.227C240.107 139.853 242.037 137.631 245.541 137.631C249.028 137.631 250.974 139.853 250.974 143.227C250.974 146.617 249.028 148.823 245.541 148.823ZM245.541 146.455C247.6 146.455 248.363 145.563 248.363 143.227C248.363 140.891 247.6 139.999 245.541 139.999C243.464 139.999 242.718 140.891 242.718 143.227C242.718 145.563 243.464 146.455 245.541 146.455ZM254.573 143.032C252.773 143.032 251.719 141.946 251.719 140.324C251.719 138.702 252.773 137.599 254.573 137.599C256.39 137.599 257.444 138.702 257.444 140.324C257.444 141.946 256.39 143.032 254.573 143.032ZM254.638 148.661H252.286L261.515 137.793H263.867L254.638 148.661ZM254.573 141.443C255.433 141.443 255.709 141.135 255.709 140.324C255.709 139.513 255.433 139.188 254.573 139.188C253.73 139.188 253.454 139.513 253.454 140.324C253.454 141.135 253.73 141.443 254.573 141.443ZM261.564 148.839C259.764 148.839 258.693 147.752 258.693 146.13C258.693 144.508 259.764 143.422 261.564 143.422C263.364 143.422 264.435 144.508 264.435 146.13C264.435 147.752 263.364 148.839 261.564 148.839ZM261.564 147.249C262.407 147.249 262.699 146.941 262.699 146.13C262.699 145.319 262.407 144.995 261.564 144.995C260.721 144.995 260.429 145.319 260.429 146.13C260.429 146.941 260.721 147.249 261.564 147.249Z" fill="#07F8B5"/>
</g>
<path d="M9.30867 427.492L5.79279 427.424H12.6163C16.4019 427.11 21.645 425.69 26.8881 419.809C33.9199 411.922 40.9517 396.012 47.9834 389.494C55.0152 382.976 62.047 385.849 69.0788 382.473C76.1105 379.097 83.1423 369.47 90.1741 366.156C97.2058 362.841 104.238 365.838 111.269 362.647C118.301 359.456 125.333 350.077 132.365 350.135C139.396 350.193 146.428 359.688 153.46 358.989C160.492 358.29 167.524 347.398 174.555 341.614C181.587 335.829 188.619 335.152 195.651 336.682C202.682 338.213 209.714 341.95 216.746 342.017C223.778 342.084 230.81 338.48 237.841 335.834C244.873 333.188 251.905 331.5 258.937 325.556C265.968 319.612 273 309.412 280.032 306.437C287.064 303.461 294.095 307.709 301.127 305.507C308.159 303.305 315.191 294.652 322.223 285.279C329.254 275.906 336.286 265.814 343.318 264.672C350.35 263.529 357.381 271.337 364.413 272.519C371.445 273.701 378.477 268.257 385.509 267.341C392.54 266.425 399.572 270.037 406.604 263.959C413.636 257.881 420.667 242.113 427.699 232.341C434.731 222.57 441.763 218.794 448.795 215.639C455.826 212.483 462.858 209.948 469.89 207.73C476.922 205.513 483.953 203.613 490.985 203.943C498.017 204.272 505.049 206.831 508.565 208.11L512.081 209.39V427.424H12.6163C11.3248 427.531 10.203 427.509 9.30867 427.492Z" fill="url(#paint0_linear_1_1669)"/>
<g opacity="0.4">
<path d="M253.283 377.786H252.295V370.376H250.099V369.625H250.585C251.614 369.625 252.115 369.347 252.476 368.471H253.283V377.786ZM255.922 377.786H254.935V368.471H255.922V372.642H261.914V368.471H262.901V377.786H261.914V373.545H255.922V377.786Z" fill="#FEFEFE"/>
<path d="M298.161 377.786H297.16V375.812H291.196V375.089L296.994 368.471H298.161V374.908H299.899V375.812H298.161V377.786ZM292.559 374.908H297.16V369.667H297.091L292.559 374.824V374.908ZM302.065 377.786H301.078V368.471H302.065V372.642H308.057V368.471H309.044V377.786H308.057V373.545H302.065V377.786Z" fill="#FEFEFE"/>
<path d="M338.667 377.786H337.68V370.376H335.483V369.625H335.97C336.999 369.625 337.499 369.347 337.861 368.471H338.667V377.786ZM344.393 377.786H340.347V368.471H344.393C347.187 368.471 348.967 370.278 348.967 373.128C348.967 375.978 347.187 377.786 344.393 377.786ZM344.393 369.375H341.348V376.882H344.393C346.756 376.882 347.924 375.659 347.924 373.128C347.924 370.598 346.756 369.375 344.393 369.375Z" fill="#FEFEFE"/>
<path d="M379.706 377.8H378.608C378.608 373.379 380.624 371.099 382.64 369.444V369.375H376.37V368.471H383.766V369.277C381.013 371.696 379.706 373.962 379.706 377.8ZM388.782 377.786H384.737V368.471H388.782C391.577 368.471 393.356 370.278 393.356 373.128C393.356 375.978 391.577 377.786 388.782 377.786ZM388.782 369.375H385.738V376.882H388.782C391.146 376.882 392.313 375.659 392.313 373.128C392.313 370.598 391.146 369.375 388.782 369.375Z" fill="#FEFEFE"/>
</g>
<path d="M197.93 377.925C195.122 377.925 193.926 376.576 193.926 374.824V374.602H194.955V374.783C194.955 376.242 195.664 376.979 197.903 376.979C199.988 376.979 200.822 376.409 200.822 375.089C200.822 373.907 200.002 373.351 198.584 373.351H196.067V372.503H198.375C199.779 372.503 200.544 371.988 200.544 370.932C200.544 369.819 199.863 369.277 197.861 369.277C195.734 369.277 194.955 370.014 194.955 371.474V371.599H193.926V371.432C193.926 369.708 195.164 368.332 197.93 368.332C200.21 368.332 201.531 369.236 201.531 370.779C201.531 371.821 200.919 372.6 199.752 372.809V372.906C201.072 373.156 201.823 373.962 201.823 375.2C201.823 376.938 200.336 377.925 197.93 377.925ZM207.075 377.925C204.42 377.925 202.751 376.131 202.751 373.128C202.751 370.139 204.42 368.332 207.075 368.332C209.717 368.332 211.385 370.139 211.385 373.128C211.385 376.131 209.717 377.925 207.075 377.925ZM207.075 376.979C209.23 376.979 210.342 375.728 210.342 373.128C210.342 370.528 209.23 369.277 207.075 369.277C204.906 369.277 203.794 370.528 203.794 373.128C203.794 375.728 204.906 376.979 207.075 376.979ZM213.698 377.786H212.711V370.918H213.601V372.989H213.657C213.851 371.835 214.644 370.779 216.354 370.779C217.883 370.779 218.745 371.724 218.968 373.059H219.037C219.232 371.877 220.052 370.779 221.776 370.779C223.569 370.779 224.501 372.044 224.501 373.782V377.786H223.514V373.921C223.514 372.391 222.86 371.682 221.414 371.682C219.76 371.682 219.093 372.642 219.093 374.463V377.786H218.106V373.921C218.106 372.391 217.466 371.682 216.02 371.682C214.352 371.682 213.698 372.642 213.698 374.463V377.786Z" fill="#FEFEFE"/>
<path d="M32.2947 298.327H296.863" stroke="#767676" stroke-width="1.15855" stroke-linecap="round" stroke-linejoin="round" stroke-dasharray="8.11"/>
<path d="M32.2947 251.985H436.363" stroke="#767676" stroke-width="1.15855" stroke-linecap="round" stroke-linejoin="round" stroke-dasharray="8.11"/>
<path d="M32.2947 344.67H144.135" stroke="#767676" stroke-width="1.15855" stroke-linecap="round" stroke-linejoin="round" stroke-dasharray="8.11"/>
<circle opacity="0.4" cx="473.848" cy="212.015" r="35.9151" fill="url(#paint1_radial_1_1669)"/>
<circle cx="475.091" cy="207.381" r="7.5306" fill="#89B9FF" stroke="#181818" stroke-width="3.47566"/>
<path d="M376.53 149.453C376.53 144.335 380.679 140.185 385.798 140.185H465.738C470.857 140.185 475.007 144.335 475.007 149.453V192.32H385.798C380.679 192.32 376.53 188.17 376.53 183.051V149.453Z" fill="white"/>
<line x1="474.428" y1="184.21" x2="474.428" y2="201.588" stroke="#89B9FF" stroke-width="1.15855"/>
<path d="M395.468 181.515H394.316V172.869H391.753V171.994H392.321C393.521 171.994 394.105 171.669 394.527 170.647H395.468V181.515ZM401.983 181.677C398.999 181.677 397.312 180.347 397.312 178.335V178.108H398.496V178.335C398.496 179.893 399.729 180.622 401.999 180.622C404.027 180.622 405.178 179.925 405.178 178.125C405.178 176.357 404.059 175.675 402.016 175.675C400.377 175.675 399.372 176.016 398.577 176.551L398.528 176.535V176.551L397.458 176.389L398.009 170.647H405.925V171.702H399.015L398.593 175.854L398.674 175.87C399.372 175.286 400.734 174.718 402.356 174.718C404.74 174.718 406.395 175.902 406.395 178.125C406.395 180.314 404.708 181.677 401.983 181.677ZM409.195 181.515H407.768V179.26H409.195V181.515ZM414.033 181.531H412.752C412.752 176.373 415.104 173.713 417.456 171.783V171.702H410.141V170.647H418.77V171.588C415.558 174.41 414.033 177.054 414.033 181.531ZM424.409 181.677C421.44 181.677 419.608 180.639 419.608 178.563C419.608 177.216 420.548 176.178 422.332 175.821V175.708C420.759 175.497 419.9 174.54 419.9 173.307C419.9 171.637 421.44 170.485 424.409 170.485C427.393 170.485 428.918 171.637 428.918 173.307C428.918 174.54 428.058 175.497 426.485 175.708V175.821C428.301 176.178 429.21 177.216 429.21 178.563C429.21 180.639 427.361 181.677 424.409 181.677ZM424.409 175.432C426.712 175.432 427.766 174.8 427.766 173.518C427.766 172.318 426.955 171.588 424.409 171.588C421.878 171.588 421.051 172.318 421.051 173.518C421.051 174.8 422.105 175.432 424.409 175.432ZM424.409 180.574C426.988 180.574 428.042 179.925 428.042 178.384C428.042 176.973 426.955 176.259 424.409 176.259C421.862 176.259 420.775 176.973 420.775 178.384C420.775 179.925 421.813 180.574 424.409 180.574ZM435.526 181.677C432.428 181.677 430.481 179.584 430.481 176.081C430.481 172.594 432.428 170.485 435.526 170.485C438.608 170.485 440.554 172.594 440.554 176.081C440.554 179.584 438.608 181.677 435.526 181.677ZM435.526 180.574C438.04 180.574 439.337 179.114 439.337 176.081C439.337 173.048 438.04 171.588 435.526 171.588C432.996 171.588 431.698 173.048 431.698 176.081C431.698 179.114 432.996 180.574 435.526 180.574ZM442.229 182.942H441.888V182.244H442.213C442.423 182.244 442.537 182.196 442.537 181.904V181.515H441.904V179.26H443.332V181.888C443.332 182.601 442.91 182.942 442.229 182.942ZM449.727 181.677C446.629 181.677 444.683 179.584 444.683 176.081C444.683 172.594 446.629 170.485 449.727 170.485C452.809 170.485 454.755 172.594 454.755 176.081C454.755 179.584 452.809 181.677 449.727 181.677ZM449.727 180.574C452.241 180.574 453.539 179.114 453.539 176.081C453.539 173.048 452.241 171.588 449.727 171.588C447.197 171.588 445.899 173.048 445.899 176.081C445.899 179.114 447.197 180.574 449.727 180.574ZM459.496 181.515H458.344V172.869H455.781V171.994H456.349C457.549 171.994 458.133 171.669 458.555 170.647H459.496V181.515Z" fill="#181818"/>
<path d="M393.716 162.978H392.564V152.11H393.829L399.522 159.49L400.836 161.307H400.934L400.901 159.523V152.11H402.053V162.978H400.788L395.127 155.679L393.764 153.846H393.683L393.716 155.663V162.978ZM409.124 162.978H407.956V159.117L403.236 152.11H404.647L407.632 156.538L408.524 157.868H408.621L409.497 156.538L412.465 152.11H413.876L409.124 159.117V162.978ZM419.298 163.14C416.103 163.14 414.611 161.615 414.611 159.539V159.442H415.779V159.653C415.779 161.21 416.752 162.053 419.298 162.053C421.472 162.053 422.461 161.453 422.461 160.22C422.461 159.004 421.731 158.566 420.142 158.242L417.839 157.804C416.071 157.463 414.66 156.717 414.66 154.916C414.66 153.44 415.925 151.948 419.039 151.948C422.104 151.948 423.467 153.57 423.467 155.549V155.646H422.299V155.452C422.299 153.878 421.326 153.035 418.958 153.035C416.801 153.035 415.827 153.651 415.827 154.835C415.827 156.068 416.541 156.441 418.147 156.782L420.434 157.236C422.38 157.609 423.629 158.436 423.629 160.123C423.629 161.68 422.315 163.14 419.298 163.14ZM433.669 162.978H425.413V152.11H433.669V153.165H426.565V156.993H433.426V158.031H426.565V161.923H433.669V162.978Z" fill="#181818"/>
<defs>
<filter id="filter0_d_1_1669" x="3.8147e-06" y="-1.23978e-05" width="516.715" height="440.25" filterUnits="userSpaceOnUse" color-interpolation-filters="sRGB">
<feFlood flood-opacity="0" result="BackgroundImageFix"/>
<feColorMatrix in="SourceAlpha" type="matrix" values="0 0 0 0 0 0 0 0 0 0 0 0 0 0 0 0 0 0 127 0" result="hardAlpha"/>
<feOffset dy="1.15855"/>
<feGaussianBlur stdDeviation="2.31711"/>
<feComposite in2="hardAlpha" operator="out"/>
<feColorMatrix type="matrix" values="0 0 0 0 0 0 0 0 0 0 0 0 0 0 0 0 0 0 0.1 0"/>
<feBlend mode="normal" in2="BackgroundImageFix" result="effect1_dropShadow_1_1669"/>
<feBlend mode="normal" in="SourceGraphic" in2="effect1_dropShadow_1_1669" result="shape"/>
</filter>
<filter id="filter1_d_1_1669" x="171.466" y="110.807" width="127.441" height="84.2448" filterUnits="userSpaceOnUse" color-interpolation-filters="sRGB">
<feFlood flood-opacity="0" result="BackgroundImageFix"/>
<feColorMatrix in="SourceAlpha" type="matrix" values="0 0 0 0 0 0 0 0 0 0 0 0 0 0 0 0 0 0 127 0" result="hardAlpha"/>
<feOffset dy="9.26842"/>
<feGaussianBlur stdDeviation="13.9026"/>
<feColorMatrix type="matrix" values="0 0 0 0 0.964706 0 0 0 0 0.109804 0 0 0 0 0.478431 0 0 0 0.01 0"/>
<feBlend mode="normal" in2="BackgroundImageFix" result="effect1_dropShadow_1_1669"/>
<feBlend mode="normal" in="SourceGraphic" in2="effect1_dropShadow_1_1669" result="shape"/>
</filter>
<linearGradient id="paint0_linear_1_1669" x1="290.661" y1="159.961" x2="285.583" y2="427.506" gradientUnits="userSpaceOnUse">
<stop stop-color="#B4EF0D"/>
<stop offset="1"/>
</linearGradient>
<radialGradient id="paint1_radial_1_1669" cx="0" cy="0" r="1" gradientUnits="userSpaceOnUse" gradientTransform="translate(473.848 212.015) rotate(28.005) scale(47.5261)">
<stop stop-color="#D0F5A1"/>
<stop offset="0.723902" stop-color="#7CFE15" stop-opacity="0.1"/>
</radialGradient>
</defs>
</svg>
