<svg width="455" height="330" viewBox="0 0 455 330" fill="none" xmlns="http://www.w3.org/2000/svg">
<path d="M38.4362 319.195H36.0479V311.488H33.3093V309.848H33.7551C34.9333 309.848 35.7294 309.578 36.2549 308.527H38.4362V319.195ZM49.0468 319.195H39.5731V317.666C39.5731 315.787 40.3851 314.816 42.6302 314.068L45.3688 313.176C46.3241 312.842 46.6744 312.523 46.6744 311.823C46.6744 311.011 46.2286 310.549 44.4771 310.549C42.5187 310.549 41.9296 311.138 41.9296 312.316V312.523H39.589V312.316C39.589 310.246 41.0061 308.368 44.5568 308.368C47.773 308.368 49.0787 309.832 49.0787 311.855C49.0787 313.749 47.8367 314.689 45.942 315.214L43.6174 315.851C42.5824 316.169 42.0888 316.472 42.0888 317.316L44.8752 317.045H49.0468V319.195ZM52.6116 319.195H50.2233V308.527H52.6116V312.762H58.1844V308.527H60.5727V319.195H58.1844V314.912H52.6116V319.195Z" fill="#FEFEFE"/>
<path d="M133.696 319.195H131.308V311.488H128.569V309.848H129.015C130.193 309.848 130.989 309.578 131.515 308.527H133.696V319.195ZM140.374 319.195H135.231V308.527H140.374C143.797 308.527 145.962 310.517 145.962 313.861C145.962 317.204 143.797 319.195 140.374 319.195ZM140.374 310.676H137.619V317.045H140.374C142.539 317.045 143.415 316.424 143.415 313.861C143.415 311.297 142.539 310.676 140.374 310.676Z" fill="#FEFEFE"/>
<rect x="195.668" y="297.214" width="63.8348" height="31.8444" rx="15.9222" fill="#F0FF9D"/>
<path d="M221.144 319.195H218.756V311.488H216.017V309.848H216.463C217.641 309.848 218.437 309.578 218.963 308.527H221.144V319.195ZM228.156 319.195H224.606L222.09 308.527H224.765L226.055 314.577L226.421 316.918H226.596L227.09 314.577L228.873 308.527H232.424L234.191 314.577L234.684 316.918H234.86L235.226 314.577L236.516 308.527H239.127L236.595 319.195H233.044L231.452 313.861L230.704 310.788H230.529L229.78 313.861L228.156 319.195Z" fill="black"/>
<path d="M312.644 319.195H310.256V311.488H307.518V309.848H307.963C309.142 309.848 309.938 309.578 310.463 308.527H312.644V319.195ZM316.44 319.195H314.052V308.527H317.284L319.784 313.781L320.787 316.281H320.962L321.934 313.781L324.354 308.527H327.602V319.195H325.213V313.781L325.293 312.109H325.118L324.497 313.781L322.268 318.558H319.37L317.141 313.781L316.52 312.109H316.345L316.44 313.781V319.195Z" fill="#FEFEFE"/>
<path d="M404.454 319.195H402.065V311.488H399.327V309.848H399.773C400.951 309.848 401.747 309.578 402.272 308.527H404.454V319.195ZM412.182 319.195H409.778V315.66L405.049 308.527H407.995L410.033 311.648L410.924 313.081H411.1L411.991 311.648L414.029 308.527H416.991L412.182 315.676V319.195Z" fill="#FEFEFE"/>
<path opacity="0.4" d="M92.9769 222.911V10.6147" stroke="#F0FF9D" stroke-width="1.32685" stroke-linecap="round" stroke-linejoin="round" stroke-dasharray="7.96"/>
<path d="M81.4032 263.14H80.0843V250.694H81.8862L86.0658 258.812L87.1617 261.115H87.2546L88.332 258.812L92.493 250.694H94.3135V263.14H92.9946V254.372L93.0317 252.7H92.9203L92.1401 254.372L87.9977 262.397H86.4001L82.2577 254.372L81.4589 252.7H81.3661L81.4032 254.372V263.14ZM101.347 263.326C98.356 263.326 96.3684 261.338 96.3684 258.552C96.3684 255.766 98.356 253.778 101.347 253.778C104.356 253.778 106.344 255.766 106.344 258.552C106.344 261.338 104.356 263.326 101.347 263.326ZM101.347 262.137C103.873 262.137 105.043 260.781 105.043 258.552C105.043 256.341 103.873 254.967 101.347 254.967C98.8204 254.967 97.6687 256.341 97.6687 258.552C97.6687 260.781 98.8204 262.137 101.347 262.137Z" fill="#EFEFEF"/>
<path opacity="0.4" d="M148.486 222.911V10.6147" stroke="#F0FF9D" stroke-width="1.32685" stroke-linecap="round" stroke-linejoin="round" stroke-dasharray="7.96"/>
<path d="M143.36 263.14H142.041V251.902H136.914V250.694H148.468V251.902H143.36V263.14ZM153.956 263.326C151.337 263.326 150.055 261.505 150.055 259.332V253.964H151.374V259.128C151.374 261.041 152.303 262.137 154.42 262.137C156.668 262.137 157.838 260.781 157.838 258.422V253.964H159.157V263.14H157.968V260.279H157.875C157.56 261.84 156.241 263.326 153.956 263.326Z" fill="#EFEFEF"/>
<path opacity="0.4" d="M203.994 222.911V10.6147" stroke="#F0FF9D" stroke-width="1.32685" stroke-linecap="round" stroke-linejoin="round" stroke-dasharray="7.96"/>
<path d="M194.777 263.14H192.808L189.204 250.694H190.672L193.143 259.276L193.793 261.821H193.904L194.647 259.276L197.545 250.694H199.403L202.598 259.276L203.434 261.821H203.526L204.102 259.276L206.276 250.694H207.725L204.511 263.14H202.542L199.514 255.041L198.53 252.143H198.399L197.526 255.041L194.777 263.14ZM213.857 263.326C210.903 263.326 209.027 261.468 209.027 258.552C209.027 255.766 210.885 253.778 213.838 253.778C216.532 253.778 218.445 255.338 218.445 258.069C218.445 258.403 218.408 258.682 218.352 258.923H210.272C210.346 260.985 211.405 262.23 213.838 262.23C215.993 262.23 216.996 261.431 216.996 260.094V259.964H218.315V260.094C218.315 262.007 216.421 263.326 213.857 263.326ZM213.82 254.874C211.442 254.874 210.365 256.1 210.272 258.106H217.201C217.201 258.013 217.201 257.92 217.201 257.827C217.201 255.896 215.975 254.874 213.82 254.874Z" fill="#EFEFEF"/>
<path opacity="0.4" d="M259.503 222.911V10.6147" stroke="#F0FF9D" stroke-width="1.32685" stroke-linecap="round" stroke-linejoin="round" stroke-dasharray="7.96"/>
<path d="M254.377 263.14H253.058V251.902H247.931V250.694H259.485V251.902H254.377V263.14ZM262.446 263.14H261.128V250.694H262.446V256.769H262.539C262.837 255.227 264.025 253.778 266.366 253.778C268.929 253.778 270.211 255.487 270.211 257.809V263.14H268.892V257.976C268.892 255.877 267.908 254.985 265.846 254.985C263.394 254.985 262.446 256.546 262.446 258.831V263.14Z" fill="#EFEFEF"/>
<path opacity="0.4" d="M315.011 222.911V10.6147" stroke="#F0FF9D" stroke-width="1.32685" stroke-linecap="round" stroke-linejoin="round" stroke-dasharray="7.96"/>
<path d="M307.192 263.14H305.873V250.694H315.198V251.902H307.192V256.657H314.92V257.846H307.192V263.14ZM318.608 263.14H317.289V253.964H318.478V256.471H318.571C318.849 255.004 319.89 253.778 321.803 253.778C323.921 253.778 324.849 255.338 324.849 257.047V257.957H323.53V257.252C323.53 255.691 322.88 254.93 321.283 254.93C319.425 254.93 318.608 256.1 318.608 258.162V263.14Z" fill="#EFEFEF"/>
<path opacity="0.4" d="M370.519 222.911V10.6147" stroke="#F0FF9D" stroke-width="1.32685" stroke-linecap="round" stroke-linejoin="round" stroke-dasharray="7.96"/>
<path d="M365.404 263.326C361.745 263.326 360.036 261.58 360.036 259.202V259.091H361.373V259.332C361.373 261.115 362.488 262.081 365.404 262.081C367.894 262.081 369.027 261.394 369.027 259.982C369.027 258.589 368.191 258.087 366.37 257.716L363.733 257.214C361.708 256.824 360.092 255.97 360.092 253.908C360.092 252.218 361.541 250.509 365.107 250.509C368.618 250.509 370.178 252.366 370.178 254.632V254.744H368.841V254.521C368.841 252.719 367.726 251.753 365.014 251.753C362.544 251.753 361.429 252.459 361.429 253.815C361.429 255.227 362.247 255.654 364.086 256.044L366.705 256.564C368.934 256.992 370.364 257.939 370.364 259.871C370.364 261.654 368.86 263.326 365.404 263.326ZM374.952 263.326C373.151 263.326 371.925 262.471 371.925 260.985C371.925 259.481 373.169 258.831 374.878 258.645L379.243 258.162V257.456C379.243 255.673 378.463 254.967 376.457 254.967C374.488 254.967 373.448 255.673 373.448 257.289V257.363H372.129V257.289C372.129 255.357 373.726 253.778 376.55 253.778C379.336 253.778 380.525 255.375 380.525 257.4V263.14H379.336V260.67H379.243C378.705 262.36 377.089 263.326 374.952 263.326ZM373.243 260.892C373.243 261.821 373.856 262.304 375.25 262.304C377.479 262.304 379.243 261.32 379.243 259.109V259.035L375.287 259.481C373.912 259.611 373.243 259.945 373.243 260.892Z" fill="#EFEFEF"/>
<path opacity="0.4" d="M426.028 222.911V10.6147" stroke="#F0FF9D" stroke-width="1.32685" stroke-linecap="round" stroke-linejoin="round" stroke-dasharray="7.96"/>
<path d="M420.424 263.326C416.764 263.326 415.055 261.58 415.055 259.202V259.091H416.393V259.332C416.393 261.115 417.507 262.081 420.424 262.081C422.913 262.081 424.046 261.394 424.046 259.982C424.046 258.589 423.21 258.087 421.389 257.716L418.752 257.214C416.727 256.824 415.111 255.97 415.111 253.908C415.111 252.218 416.56 250.509 420.126 250.509C423.637 250.509 425.198 252.366 425.198 254.632V254.744H423.86V254.521C423.86 252.719 422.746 251.753 420.033 251.753C417.563 251.753 416.448 252.459 416.448 253.815C416.448 255.227 417.266 255.654 419.105 256.044L421.724 256.564C423.953 256.992 425.383 257.939 425.383 259.871C425.383 261.654 423.879 263.326 420.424 263.326ZM431.272 263.326C428.653 263.326 427.371 261.505 427.371 259.332V253.964H428.69V259.128C428.69 261.041 429.619 262.137 431.736 262.137C433.984 262.137 435.154 260.781 435.154 258.422V253.964H436.473V263.14H435.284V260.279H435.191C434.876 261.84 433.557 263.326 431.272 263.326Z" fill="#EFEFEF"/>
<path d="M6.27865 20.8576H5.05264V19.1486C2.0062 18.8885 0.575852 17.2353 0.575852 15.0619V14.9505H1.91332V15.1919C1.91332 16.9752 3.02787 17.9412 5.94428 17.9412C8.43345 17.9412 9.56658 17.2539 9.56658 15.8421C9.56658 14.4489 8.73066 13.9474 6.91023 13.5758L4.27245 13.0743C2.24768 12.6842 0.63158 11.8297 0.63158 9.76779C0.63158 8.17026 1.91332 6.57274 5.05264 6.38698V4.69657H6.27865V6.38698C9.34367 6.60989 10.7183 8.3746 10.7183 10.4922V10.6037H9.38082V10.3808C9.38082 8.57893 8.26627 7.61298 5.55419 7.61298C3.0836 7.61298 1.96904 8.31887 1.96904 9.67491C1.96904 11.0867 2.78638 11.5139 4.62539 11.904L7.24459 12.4241C9.4737 12.8514 10.904 13.7988 10.904 15.7306C10.904 17.4582 9.49228 19.0743 6.27865 19.1858V20.8576ZM22.5139 19H12.6501V18.0898C12.6501 15.6935 13.5232 14.5232 16.0309 13.613L18.8173 12.6285C20.6192 11.9597 21.2136 11.3467 21.2136 10.0278C21.2136 8.39317 20.0805 7.61298 17.7213 7.61298C15.0278 7.61298 13.9133 8.65323 13.9133 10.5108V10.7337H12.5944V10.5665C12.5944 8.35602 14.1176 6.3684 17.7585 6.3684C21.1022 6.3684 22.5511 8.02165 22.5511 10.0278C22.5511 11.9412 21.3622 13.0186 19.1703 13.7616L16.6254 14.6161C14.582 15.3406 14.0062 16.1579 14.0062 17.904L16.7926 17.7926H22.5139V19ZM29.52 19.1858C26.1207 19.1858 24.0216 17.9969 24.0216 15.6192C24.0216 14.0774 25.099 12.8885 27.1423 12.4799V12.3498C25.3405 12.1083 24.3559 11.0124 24.3559 9.6006C24.3559 7.68729 26.1207 6.3684 29.52 6.3684C32.938 6.3684 34.6841 7.68729 34.6841 9.6006C34.6841 11.0124 33.6996 12.1083 31.8978 12.3498V12.4799C33.9782 12.8885 35.0185 14.0774 35.0185 15.6192C35.0185 17.9969 32.9008 19.1858 29.52 19.1858ZM29.52 12.034C32.1578 12.034 33.3652 11.3096 33.3652 9.84209C33.3652 8.46748 32.4365 7.63156 29.52 7.63156C26.6222 7.63156 25.6748 8.46748 25.6748 9.84209C25.6748 11.3096 26.8823 12.034 29.52 12.034ZM29.52 17.9226C32.4736 17.9226 33.681 17.1796 33.681 15.4149C33.681 13.7988 32.4365 12.9814 29.52 12.9814C26.6036 12.9814 25.359 13.7988 25.359 15.4149C25.359 17.1796 26.5479 17.9226 29.52 17.9226ZM42.2522 19.1858C38.7042 19.1858 36.4751 16.7895 36.4751 12.7771C36.4751 8.78327 38.7042 6.3684 42.2522 6.3684C45.7816 6.3684 48.0107 8.78327 48.0107 12.7771C48.0107 16.7895 45.7816 19.1858 42.2522 19.1858ZM42.2522 17.9226C45.1314 17.9226 46.6175 16.2508 46.6175 12.7771C46.6175 9.30339 45.1314 7.63156 42.2522 7.63156C39.3543 7.63156 37.8683 9.30339 37.8683 12.7771C37.8683 16.2508 39.3543 17.9226 42.2522 17.9226Z" fill="#EFEFEF"/>
<path d="M6.27865 73.9316H5.05264V72.2226C2.0062 71.9625 0.575852 70.3093 0.575852 68.1359V68.0244H1.91332V68.2659C1.91332 70.0492 3.02787 71.0151 5.94428 71.0151C8.43345 71.0151 9.56658 70.3278 9.56658 68.9161C9.56658 67.5229 8.73066 67.0213 6.91023 66.6498L4.27245 66.1483C2.24768 65.7582 0.63158 64.9037 0.63158 62.8418C0.63158 61.2442 1.91332 59.6467 5.05264 59.461V57.7705H6.27865V59.461C9.34367 59.6839 10.7183 61.4486 10.7183 63.5662V63.6777H9.38082V63.4548C9.38082 61.6529 8.26627 60.687 5.55419 60.687C3.0836 60.687 1.96904 61.3928 1.96904 62.7489C1.96904 64.1606 2.78638 64.5879 4.62539 64.978L7.24459 65.4981C9.4737 65.9254 10.904 66.8727 10.904 68.8046C10.904 70.5322 9.49228 72.1483 6.27865 72.2597V73.9316ZM22.5139 72.074H12.6501V71.1638C12.6501 68.7675 13.5232 67.5972 16.0309 66.687L18.8173 65.7024C20.6192 65.0337 21.2136 64.4207 21.2136 63.1018C21.2136 61.4671 20.0805 60.687 17.7213 60.687C15.0278 60.687 13.9133 61.7272 13.9133 63.5848V63.8077H12.5944V63.6405C12.5944 61.43 14.1176 59.4424 17.7585 59.4424C21.1022 59.4424 22.5511 61.0956 22.5511 63.1018C22.5511 65.0151 21.3622 66.0925 19.1703 66.8356L16.6254 67.6901C14.582 68.4145 14.0062 69.2319 14.0062 70.978L16.7926 70.8665H22.5139V72.074ZM30.0402 72.2597C26.0463 72.2597 24.3188 70.365 24.3188 65.7396C24.3188 62.0058 26.1207 59.4424 30.003 59.4424C32.8451 59.4424 34.9256 60.9099 34.9256 63.4176V63.5476H33.4953V63.4176C33.4953 61.8758 32.5851 60.7055 30.003 60.7055C26.8451 60.7055 25.6934 62.3774 25.6934 65.6839V66.7984H25.8234C26.2507 65.4052 27.9597 64.365 30.4303 64.365C33.4767 64.365 35.26 65.8511 35.26 68.2659C35.26 70.6994 33.3652 72.2597 30.0402 72.2597ZM30.003 70.9966C32.6779 70.9966 33.9039 70.0678 33.9039 68.173C33.9039 66.334 32.7151 65.3681 30.0216 65.3681C27.4953 65.3681 25.9535 66.3712 25.9535 68.0616C25.9535 69.9935 27.4024 70.9966 30.003 70.9966ZM42.8145 72.2597C39.2665 72.2597 37.0374 69.8634 37.0374 65.8511C37.0374 61.8572 39.2665 59.4424 42.8145 59.4424C46.3439 59.4424 48.573 61.8572 48.573 65.8511C48.573 69.8634 46.3439 72.2597 42.8145 72.2597ZM42.8145 70.9966C45.6938 70.9966 47.1799 69.3247 47.1799 65.8511C47.1799 62.3774 45.6938 60.7055 42.8145 60.7055C39.9167 60.7055 38.4306 62.3774 38.4306 65.8511C38.4306 69.3247 39.9167 70.9966 42.8145 70.9966Z" fill="#EFEFEF"/>
<path d="M6.27865 127.006H5.05264V125.297C2.0062 125.036 0.575852 123.383 0.575852 121.21V121.098H1.91332V121.34C1.91332 123.123 3.02787 124.089 5.94428 124.089C8.43345 124.089 9.56658 123.402 9.56658 121.99C9.56658 120.597 8.73066 120.095 6.91023 119.724L4.27245 119.222C2.24768 118.832 0.63158 117.978 0.63158 115.916C0.63158 114.318 1.91332 112.721 5.05264 112.535V110.845H6.27865V112.535C9.34367 112.758 10.7183 114.523 10.7183 116.64V116.752H9.38082V116.529C9.38082 114.727 8.26627 113.761 5.55419 113.761C3.0836 113.761 1.96904 114.467 1.96904 115.823C1.96904 117.235 2.78638 117.662 4.62539 118.052L7.24459 118.572C9.4737 118.999 10.904 119.947 10.904 121.879C10.904 123.606 9.49228 125.222 6.27865 125.334V127.006ZM22.5139 125.148H12.6501V124.238C12.6501 121.841 13.5232 120.671 16.0309 119.761L18.8173 118.776C20.6192 118.108 21.2136 117.495 21.2136 116.176C21.2136 114.541 20.0805 113.761 17.7213 113.761C15.0278 113.761 13.9133 114.801 13.9133 116.659V116.882H12.5944V116.714C12.5944 114.504 14.1176 112.516 17.7585 112.516C21.1022 112.516 22.5511 114.17 22.5511 116.176C22.5511 118.089 21.3622 119.167 19.1703 119.91L16.6254 120.764C14.582 121.489 14.0062 122.306 14.0062 124.052L16.7926 123.941H22.5139V125.148ZM33.3095 125.148H31.9721V122.51H24.003V121.544L31.7491 112.702H33.3095V121.303H35.6315V122.51H33.3095V125.148ZM25.8234 121.303H31.9721V114.3H31.8792L25.8234 121.191V121.303ZM42.8508 125.334C39.3028 125.334 37.0737 122.937 37.0737 118.925C37.0737 114.931 39.3028 112.516 42.8508 112.516C46.3802 112.516 48.6093 114.931 48.6093 118.925C48.6093 122.937 46.3802 125.334 42.8508 125.334ZM42.8508 124.071C45.7301 124.071 47.2161 122.399 47.2161 118.925C47.2161 115.451 45.7301 113.78 42.8508 113.78C39.953 113.78 38.4669 115.451 38.4669 118.925C38.4669 122.399 39.953 124.071 42.8508 124.071Z" fill="#EFEFEF"/>
<path d="M6.27865 180.08H5.05264V178.371C2.0062 178.11 0.575852 176.457 0.575852 174.284V174.172H1.91332V174.414C1.91332 176.197 3.02787 177.163 5.94428 177.163C8.43345 177.163 9.56658 176.476 9.56658 175.064C9.56658 173.671 8.73066 173.169 6.91023 172.798L4.27245 172.296C2.24768 171.906 0.63158 171.052 0.63158 168.99C0.63158 167.392 1.91332 165.795 5.05264 165.609V163.918H6.27865V165.609C9.34367 165.832 10.7183 167.597 10.7183 169.714V169.826H9.38082V169.603C9.38082 167.801 8.26627 166.835 5.55419 166.835C3.0836 166.835 1.96904 167.541 1.96904 168.897C1.96904 170.309 2.78638 170.736 4.62539 171.126L7.24459 171.646C9.4737 172.073 10.904 173.021 10.904 174.953C10.904 176.68 9.49228 178.296 6.27865 178.408V180.08ZM22.5139 178.222H12.6501V177.312C12.6501 174.915 13.5232 173.745 16.0309 172.835L18.8173 171.85C20.6192 171.182 21.2136 170.569 21.2136 169.25C21.2136 167.615 20.0805 166.835 17.7213 166.835C15.0278 166.835 13.9133 167.875 13.9133 169.733V169.956H12.5944V169.788C12.5944 167.578 14.1176 165.59 17.7585 165.59C21.1022 165.59 22.5511 167.244 22.5511 169.25C22.5511 171.163 21.3622 172.24 19.1703 172.984L16.6254 173.838C14.582 174.562 14.0062 175.38 14.0062 177.126L16.7926 177.014H22.5139V178.222ZM34.2197 178.222H24.3559V177.312C24.3559 174.915 25.229 173.745 27.7368 172.835L30.5231 171.85C32.325 171.182 32.9194 170.569 32.9194 169.25C32.9194 167.615 31.7863 166.835 29.4272 166.835C26.7337 166.835 25.6191 167.875 25.6191 169.733V169.956H24.3002V169.788C24.3002 167.578 25.8234 165.59 29.4643 165.59C32.808 165.59 34.2569 167.244 34.2569 169.25C34.2569 171.163 33.068 172.24 30.8761 172.984L28.3312 173.838C26.2878 174.562 25.712 175.38 25.712 177.126L28.4984 177.014H34.2197V178.222ZM41.6717 178.408C38.1237 178.408 35.8946 176.011 35.8946 171.999C35.8946 168.005 38.1237 165.59 41.6717 165.59C45.2011 165.59 47.4302 168.005 47.4302 171.999C47.4302 176.011 45.2011 178.408 41.6717 178.408ZM41.6717 177.145C44.5509 177.145 46.037 175.473 46.037 171.999C46.037 168.525 44.5509 166.853 41.6717 166.853C38.7738 166.853 37.2878 168.525 37.2878 171.999C37.2878 175.473 38.7738 177.145 41.6717 177.145Z" fill="#EFEFEF"/>
<path d="M6.27865 233.153H5.05264V231.444C2.0062 231.184 0.575852 229.531 0.575852 227.358V227.246H1.91332V227.488C1.91332 229.271 3.02787 230.237 5.94428 230.237C8.43345 230.237 9.56658 229.55 9.56658 228.138C9.56658 226.745 8.73066 226.243 6.91023 225.872L4.27245 225.37C2.24768 224.98 0.63158 224.125 0.63158 222.064C0.63158 220.466 1.91332 218.869 5.05264 218.683V216.992H6.27865V218.683C9.34367 218.906 10.7183 220.67 10.7183 222.788V222.899H9.38082V222.677C9.38082 220.875 8.26627 219.909 5.55419 219.909C3.0836 219.909 1.96904 220.615 1.96904 221.971C1.96904 223.382 2.78638 223.81 4.62539 224.2L7.24459 224.72C9.4737 225.147 10.904 226.095 10.904 228.026C10.904 229.754 9.49228 231.37 6.27865 231.482V233.153ZM22.5139 231.296H12.6501V230.386C12.6501 227.989 13.5232 226.819 16.0309 225.909L18.8173 224.924C20.6192 224.256 21.2136 223.643 21.2136 222.324C21.2136 220.689 20.0805 219.909 17.7213 219.909C15.0278 219.909 13.9133 220.949 13.9133 222.807V223.03H12.5944V222.862C12.5944 220.652 14.1176 218.664 17.7585 218.664C21.1022 218.664 22.5511 220.317 22.5511 222.324C22.5511 224.237 21.3622 225.314 19.1703 226.057L16.6254 226.912C14.582 227.636 14.0062 228.454 14.0062 230.2L16.7926 230.088H22.5139V231.296ZM29.9659 231.482C26.4179 231.482 24.1888 229.085 24.1888 225.073C24.1888 221.079 26.4179 218.664 29.9659 218.664C33.4953 218.664 35.7244 221.079 35.7244 225.073C35.7244 229.085 33.4953 231.482 29.9659 231.482ZM29.9659 230.218C32.8451 230.218 34.3312 228.547 34.3312 225.073C34.3312 221.599 32.8451 219.927 29.9659 219.927C27.068 219.927 25.582 221.599 25.582 225.073C25.582 228.547 27.068 230.218 29.9659 230.218ZM43.1411 231.482C39.5931 231.482 37.364 229.085 37.364 225.073C37.364 221.079 39.5931 218.664 43.1411 218.664C46.6705 218.664 48.8996 221.079 48.8996 225.073C48.8996 229.085 46.6705 231.482 43.1411 231.482ZM43.1411 230.218C46.0203 230.218 47.5064 228.547 47.5064 225.073C47.5064 221.599 46.0203 219.927 43.1411 219.927C40.2432 219.927 38.7571 221.599 38.7571 225.073C38.7571 228.547 40.2432 230.218 43.1411 230.218Z" fill="#EFEFEF"/>
<path d="M77.7726 172.49C78.5054 172.49 79.0997 173.085 79.0997 173.817V177.922C81.4809 178.445 83.2628 180.567 83.2628 183.105V193.72C83.2628 196.258 81.4807 198.378 79.0997 198.901V203.008C79.0997 203.741 78.5053 204.335 77.7726 204.335H77.6515C76.9187 204.335 76.3244 203.741 76.3243 203.008V198.901C73.9434 198.378 72.1612 196.258 72.1612 193.72V183.105C72.1612 180.567 73.9432 178.445 76.3243 177.922V173.817C76.3243 173.085 76.9187 172.49 77.6515 172.49H77.7726Z" fill="#89B9FF"/>
<path d="M102.751 148.607C103.484 148.607 104.078 149.201 104.078 149.934V162C106.46 162.523 108.241 164.645 108.241 167.183V172.49C108.241 175.028 106.459 177.149 104.078 177.672V189.739C104.078 190.472 103.484 191.066 102.751 191.066H102.63C101.897 191.066 101.303 190.472 101.303 189.739V177.672C98.922 177.149 97.1399 175.028 97.1399 172.49V167.183C97.1399 164.645 98.9218 162.523 101.303 162V149.934C101.303 149.201 101.897 148.607 102.63 148.607H102.751Z" fill="#F0FF9D"/>
<path d="M130.506 148.607C131.239 148.607 131.833 149.201 131.833 149.934V151.385C134.214 151.909 135.996 154.03 135.996 156.568V159.222C135.996 161.76 134.214 163.881 131.833 164.404V165.856C131.833 166.589 131.239 167.183 130.506 167.183H130.384C129.652 167.183 129.057 166.589 129.057 165.856V164.404C126.676 163.881 124.894 161.76 124.894 159.222V156.568C124.894 154.03 126.676 151.909 129.057 151.385V149.934C129.057 149.201 129.652 148.607 130.384 148.607H130.506Z" fill="#89B9FF"/>
<path d="M158.26 143.3C158.993 143.3 159.587 143.894 159.587 144.627V164.653C161.968 165.176 163.75 167.298 163.75 169.837V172.49C163.75 175.028 161.968 177.149 159.587 177.673V179.125C159.587 179.858 158.993 180.451 158.26 180.451H158.139C157.406 180.451 156.812 179.858 156.812 179.125V177.673C154.431 177.149 152.649 175.028 152.649 172.49V169.837C152.649 167.299 154.431 165.177 156.812 164.653V144.627C156.812 143.894 157.406 143.3 158.139 143.3H158.26Z" fill="#F0FF9D"/>
<path d="M181.852 159.222C182.584 159.222 183.178 159.816 183.178 160.549V164.654C185.559 165.177 187.341 167.299 187.341 169.837V191.067C187.341 193.605 185.559 195.725 183.178 196.248V200.354C183.178 201.086 182.584 201.681 181.852 201.681H181.73C180.997 201.681 180.403 201.087 180.403 200.354V196.248C178.022 195.725 176.24 193.605 176.24 191.067V169.837C176.24 167.299 178.021 165.177 180.403 164.654V160.549C180.403 159.816 180.997 159.222 181.73 159.222H181.852Z" fill="#F0FF9D"/>
<path d="M209.605 127.377C210.338 127.377 210.933 127.972 210.933 128.705V132.809C213.314 133.332 215.096 135.454 215.096 137.993V180.452C215.096 182.99 213.313 185.11 210.933 185.633V189.74C210.932 190.472 210.338 191.066 209.605 191.066H209.484C208.752 191.066 208.157 190.472 208.157 189.74V185.633C205.776 185.11 203.994 182.99 203.994 180.452V137.993C203.994 135.454 205.776 133.332 208.157 132.809V128.705C208.157 127.972 208.752 127.377 209.484 127.377H209.605Z" fill="#F0FF9D"/>
<path d="M234.584 65.0156C235.317 65.0156 235.911 65.61 235.911 66.3428V70.4473C238.292 70.9706 240.074 73.0926 240.074 75.6309V139.319C240.074 142.25 237.698 144.627 234.767 144.627H234.28C231.349 144.627 228.973 142.25 228.973 139.319V75.6309C228.973 73.0925 230.755 70.9705 233.136 70.4473V66.3428C233.136 65.61 233.73 65.0156 234.463 65.0156H234.584Z" fill="#F0FF9D"/>
<path d="M259.564 80.9377C260.297 80.938 260.89 81.5322 260.89 82.2649V83.7161C263.271 84.2394 265.053 86.3605 265.053 88.8987V96.8596C265.053 99.3979 263.271 101.519 260.89 102.042V103.494C260.89 104.227 260.297 104.821 259.564 104.822H259.442C258.709 104.822 258.115 104.227 258.115 103.494V102.042C255.734 101.519 253.952 99.3979 253.952 96.8596V88.8987C253.952 86.3605 255.734 84.2394 258.115 83.7161V82.2649C258.115 81.5321 258.709 80.9377 259.442 80.9377H259.564Z" fill="#F0FF9D"/>
<path d="M284.543 49.0934C285.275 49.0936 285.869 49.6879 285.869 50.4205V54.525C288.25 55.0483 290.032 57.1703 290.032 59.7086V102.168C290.032 104.706 288.25 106.826 285.869 107.349V111.456C285.869 112.188 285.275 112.782 284.543 112.782H284.421C283.688 112.782 283.094 112.188 283.094 111.456V107.349C280.713 106.826 278.931 104.706 278.93 102.168V59.7086C278.93 57.1703 280.712 55.0483 283.094 54.525V50.4205C283.094 49.6877 283.688 49.0934 284.421 49.0934H284.543Z" fill="#F0FF9D"/>
<path d="M315.073 37.1517C315.805 37.152 316.399 37.7462 316.399 38.4789V42.5834C318.78 43.1066 320.562 45.2286 320.562 47.767V58.3812C320.562 60.9194 318.78 63.0395 316.399 63.5629V67.6693C316.399 68.402 315.805 68.9962 315.073 68.9965H314.95C314.218 68.9965 313.623 68.4021 313.623 67.6693V63.5629C311.242 63.0394 309.46 60.9194 309.46 58.3812V47.767C309.46 45.2287 311.242 43.1067 313.623 42.5834V38.4789C313.623 37.7461 314.218 37.1517 314.95 37.1517H315.073Z" fill="#89B9FF"/>
<path d="M345.602 17.249C346.335 17.2493 346.928 17.8435 346.928 18.5762V37.2764C349.309 37.7997 351.091 39.9208 351.091 42.459V55.7275C351.091 58.2657 349.309 60.3858 346.928 60.9092V79.6113C346.928 80.3438 346.334 80.9372 345.602 80.9375H345.48C344.747 80.9375 344.153 80.3439 344.153 79.6113V60.9092C341.772 60.3858 339.99 58.2657 339.99 55.7275V42.459C339.99 39.9208 341.772 37.7997 344.153 37.2764V18.5762C344.153 17.8434 344.747 17.249 345.48 17.249H345.602Z" fill="#89B9FF"/>
<path d="M370.581 80.9377C371.313 80.938 371.907 81.5322 371.907 82.2649V83.7161C374.288 84.2393 376.07 86.3604 376.07 88.8987V104.821C376.07 107.359 374.288 109.48 371.907 110.003V122.071C371.907 122.803 371.313 123.396 370.581 123.397H370.459C369.726 123.397 369.132 122.803 369.132 122.071V110.003C366.751 109.48 364.969 107.359 364.969 104.821V88.8987C364.969 86.3606 366.751 84.2395 369.132 83.7161V82.2649C369.132 81.5321 369.726 80.9377 370.459 80.9377H370.581Z" fill="#F0FF9D"/>
<path d="M398.517 88.8988C401.448 88.8988 403.825 91.2752 403.825 94.2064V104.821C403.825 107.359 402.043 109.48 399.662 110.003V114.109C399.662 114.842 399.067 115.436 398.334 115.436H398.213C397.481 115.436 396.886 114.842 396.886 114.109V110.003C394.505 109.48 392.723 107.359 392.723 104.821V94.2064C392.723 91.2752 395.1 88.8988 398.031 88.8988H398.517Z" fill="#F0FF9D"/>
<path d="M426.089 18.5759C426.821 18.5759 427.416 19.1703 427.416 19.9031V24.0076C429.797 24.5308 431.579 26.6528 431.579 29.1912V71.6501C431.579 74.1883 429.797 76.3085 427.416 76.8318V80.9382C427.416 81.6708 426.821 82.2644 426.089 82.2644H425.968C425.235 82.2644 424.641 81.6708 424.64 80.9382V76.8318C422.26 76.3084 420.477 74.1882 420.477 71.6501V29.1912C420.477 26.6529 422.259 24.5309 424.64 24.0076V19.9031C424.64 19.1703 425.235 18.5759 425.968 18.5759H426.089Z" fill="#F0FF9D"/>
<path d="M66.6102 108.802H453.782" stroke="#FEFEFE" stroke-width="1.32685" stroke-linecap="round" stroke-linejoin="round" stroke-dasharray="10.61"/>
<g filter="url(#filter0_d_1_1701)">
<rect x="190.117" y="95.5331" width="88.8137" height="26.537" rx="13.2685" fill="#FEFEFE"/>
</g>
<path d="M209.496 115.125H207.267V113.629C204.735 113.358 203.334 112.116 203.334 109.935V109.839H205.722V110.126C205.722 111.113 206.216 111.511 208.381 111.511C210.292 111.511 210.738 111.224 210.738 110.508C210.738 109.855 210.371 109.616 209.273 109.425L206.279 108.995C204.369 108.693 203.238 107.737 203.238 106.002C203.238 104.537 204.337 102.993 207.267 102.738V101.273H209.496V102.802C211.836 103.184 212.935 104.553 212.935 106.464V106.559H210.531V106.336C210.531 105.317 210.005 104.887 207.887 104.887C206.168 104.887 205.642 105.222 205.642 105.906C205.642 106.527 205.993 106.75 206.884 106.909L209.878 107.387C212.266 107.769 213.126 108.932 213.126 110.396C213.126 111.925 212.075 113.326 209.496 113.629V115.125ZM223.434 113.533H213.96V112.005C213.96 110.126 214.773 109.154 217.018 108.406L219.756 107.514C220.712 107.18 221.062 106.862 221.062 106.161C221.062 105.349 220.616 104.887 218.865 104.887C216.906 104.887 216.317 105.476 216.317 106.655V106.862H213.976V106.655C213.976 104.585 215.393 102.706 218.944 102.706C222.16 102.706 223.466 104.171 223.466 106.193C223.466 108.088 222.224 109.027 220.329 109.553L218.005 110.189C216.97 110.508 216.476 110.81 216.476 111.654L219.263 111.384H223.434V113.533ZM233.368 113.533H230.98V111.495H224.213V109.871L230.597 102.865H233.368V109.346H234.992V111.495H233.368V113.533ZM227.54 109.346H230.98V105.62H230.804L227.54 109.17V109.346ZM244.742 113.533H242.354V111.495H235.587V109.871L241.972 102.865H244.742V109.346H246.367V111.495H244.742V113.533ZM238.915 109.346H242.354V105.62H242.179L238.915 109.17V109.346ZM250.274 113.533H247.201V110.747H250.274V113.533ZM260.723 113.533H251.249V112.005C251.249 110.126 252.061 109.154 254.306 108.406L257.045 107.514C258 107.18 258.35 106.862 258.35 106.161C258.35 105.349 257.905 104.887 256.153 104.887C254.195 104.887 253.606 105.476 253.606 106.655V106.862H251.265V106.655C251.265 104.585 252.682 102.706 256.233 102.706C259.449 102.706 260.755 104.171 260.755 106.193C260.755 108.088 259.513 109.027 257.618 109.553L255.293 110.189C254.258 110.508 253.765 110.81 253.765 111.654L256.551 111.384H260.723V113.533ZM266.549 113.533H264.16V105.827H261.422V104.187H261.867C263.046 104.187 263.842 103.916 264.367 102.865H266.549V113.533Z" fill="black"/>
<defs>
<filter id="filter0_d_1_1701" x="158.272" y="74.3035" width="152.502" height="90.2257" filterUnits="userSpaceOnUse" color-interpolation-filters="sRGB">
<feFlood flood-opacity="0" result="BackgroundImageFix"/>
<feColorMatrix in="SourceAlpha" type="matrix" values="0 0 0 0 0 0 0 0 0 0 0 0 0 0 0 0 0 0 127 0" result="hardAlpha"/>
<feOffset dy="10.6148"/>
<feGaussianBlur stdDeviation="15.9222"/>
<feColorMatrix type="matrix" values="0 0 0 0 0.556863 0 0 0 0 0.898039 0 0 0 0 0.796078 0 0 0 0.4 0"/>
<feBlend mode="normal" in2="BackgroundImageFix" result="effect1_dropShadow_1_1701"/>
<feBlend mode="normal" in="SourceGraphic" in2="effect1_dropShadow_1_1701" result="shape"/>
</filter>
</defs>
</svg>
