<svg width="507" height="224" viewBox="0 0 507 224" fill="none" xmlns="http://www.w3.org/2000/svg">
<path d="M3.51589 223.586L0 223.518H6.82347C10.6091 223.205 15.8522 221.784 21.0953 215.904C28.1271 208.017 35.1589 192.107 42.1906 185.589C49.2224 179.07 56.2542 181.944 63.286 178.568C70.3177 175.191 77.3495 165.565 84.3813 162.25C91.4131 158.936 98.4448 161.932 105.477 158.741C112.508 155.55 119.54 146.172 126.572 146.23C133.604 146.288 140.635 155.783 147.667 155.084C154.699 154.385 161.731 143.493 168.763 137.708C175.794 131.924 182.826 131.247 189.858 132.777C196.89 134.307 203.921 138.045 210.953 138.112C217.985 138.178 225.017 134.574 232.049 131.929C239.08 129.283 246.112 127.595 253.144 121.651C260.176 115.707 267.207 105.507 274.239 102.531C281.271 99.5555 288.303 103.804 295.334 101.602C302.366 99.3998 309.398 90.7467 316.43 81.3739C323.462 72.0011 330.493 61.9087 337.525 60.7662C344.557 59.6237 351.589 67.4312 358.62 68.6133C365.652 69.7953 372.684 64.3519 379.716 63.436C386.748 62.52 393.779 66.1315 400.811 60.0534C407.843 53.9753 414.875 38.2077 421.906 28.4361C428.938 18.6644 435.97 14.8888 443.002 11.7333C450.034 8.57772 457.065 6.04229 464.097 3.8248C471.129 1.60731 478.161 -0.29224 485.192 0.0373629C492.224 0.366966 499.256 2.92572 502.772 4.2051L506.288 5.48448V223.518H6.82347C5.53203 223.625 4.41021 223.604 3.51589 223.586Z" fill="url(#paint0_linear_1_1680)"/>
<g opacity="0.4">
<path d="M247.49 173.88H246.503V166.47H244.306V165.719H244.793C245.821 165.719 246.322 165.441 246.683 164.566H247.49V173.88ZM250.129 173.88H249.142V164.566H250.129V168.736H256.121V164.566H257.108V173.88H256.121V169.64H250.129V173.88Z" fill="#FEFEFE"/>
<path d="M292.369 173.88H291.368V171.906H285.403V171.183L291.201 164.566H292.369V171.002H294.107V171.906H292.369V173.88ZM286.766 171.002H291.368V165.761H291.298L286.766 170.919V171.002ZM296.272 173.88H295.285V164.566H296.272V168.736H302.264V164.566H303.251V173.88H302.264V169.64H296.272V173.88Z" fill="#FEFEFE"/>
<path d="M332.874 173.88H331.887V166.47H329.691V165.719H330.177C331.206 165.719 331.706 165.441 332.068 164.566H332.874V173.88ZM338.6 173.88H334.554V164.566H338.6C341.394 164.566 343.174 166.373 343.174 169.223C343.174 172.073 341.394 173.88 338.6 173.88ZM338.6 165.469H335.555V172.977H338.6C340.964 172.977 342.131 171.753 342.131 169.223C342.131 166.693 340.964 165.469 338.6 165.469Z" fill="#FEFEFE"/>
<path d="M373.914 173.894H372.815C372.815 169.473 374.831 167.193 376.847 165.539V165.469H370.577V164.566H377.973V165.372C375.221 167.791 373.914 170.057 373.914 173.894ZM382.989 173.88H378.944V164.566H382.989C385.784 164.566 387.563 166.373 387.563 169.223C387.563 172.073 385.784 173.88 382.989 173.88ZM382.989 165.469H379.945V172.977H382.989C385.353 172.977 386.521 171.753 386.521 169.223C386.521 166.693 385.353 165.469 382.989 165.469Z" fill="#FEFEFE"/>
</g>
<path d="M192.138 174.019C189.329 174.019 188.134 172.671 188.134 170.919V170.697H189.162V170.877C189.162 172.337 189.872 173.074 192.11 173.074C194.195 173.074 195.029 172.504 195.029 171.183C195.029 170.002 194.209 169.445 192.791 169.445H190.275V168.597H192.583C193.987 168.597 194.751 168.083 194.751 167.026C194.751 165.914 194.07 165.372 192.068 165.372C189.941 165.372 189.162 166.109 189.162 167.569V167.694H188.134V167.527C188.134 165.803 189.371 164.427 192.138 164.427C194.418 164.427 195.738 165.33 195.738 166.873C195.738 167.916 195.127 168.695 193.959 168.903V169.001C195.28 169.251 196.03 170.057 196.03 171.294C196.03 173.032 194.543 174.019 192.138 174.019ZM201.282 174.019C198.627 174.019 196.959 172.226 196.959 169.223C196.959 166.234 198.627 164.427 201.282 164.427C203.924 164.427 205.592 166.234 205.592 169.223C205.592 172.226 203.924 174.019 201.282 174.019ZM201.282 173.074C203.437 173.074 204.549 171.823 204.549 169.223C204.549 166.623 203.437 165.372 201.282 165.372C199.114 165.372 198.001 166.623 198.001 169.223C198.001 171.823 199.114 173.074 201.282 173.074ZM207.906 173.88H206.919V167.012H207.808V169.084H207.864C208.059 167.93 208.851 166.873 210.561 166.873C212.09 166.873 212.952 167.819 213.175 169.153H213.244C213.439 167.972 214.259 166.873 215.983 166.873C217.776 166.873 218.708 168.139 218.708 169.876V173.88H217.721V170.015C217.721 168.486 217.067 167.777 215.622 167.777C213.967 167.777 213.3 168.736 213.3 170.558V173.88H212.313V170.015C212.313 168.486 211.673 167.777 210.227 167.777C208.559 167.777 207.906 168.736 207.906 170.558V173.88Z" fill="#FEFEFE"/>
<path d="M26.502 94.4221H291.07" stroke="#767676" stroke-width="1.15855" stroke-linecap="round" stroke-linejoin="round" stroke-dasharray="8.11"/>
<path d="M26.502 48.08H430.57" stroke="#767676" stroke-width="1.15855" stroke-linecap="round" stroke-linejoin="round" stroke-dasharray="8.11"/>
<path d="M26.502 140.764H138.342" stroke="#767676" stroke-width="1.15855" stroke-linecap="round" stroke-linejoin="round" stroke-dasharray="8.11"/>
<defs>
<linearGradient id="paint0_linear_1_1680" x1="284.868" y1="-43.9446" x2="279.791" y2="223.601" gradientUnits="userSpaceOnUse">
<stop stop-color="#B4EF0D"/>
<stop offset="1"/>
</linearGradient>
</defs>
</svg>
