<svg width="229" height="48" viewBox="0 0 229 48" fill="none" xmlns="http://www.w3.org/2000/svg">
<g clip-path="url(#clip0_1_1437)">
<path d="M30.0001 0L60 18.0118V29.9836L30.0001 48L0 29.9836V18.0119L30.0001 0Z" fill="black"/>
<path fill-rule="evenodd" clip-rule="evenodd" d="M0 18.0118L30 0L60 18.0118V29.9836L30 48L0 29.9836V18.0118ZM30 40.3572L53.636 26.1626V21.8341L53.6348 21.8334L30 36.0236L6.36511 21.8334L6.36396 21.8341V26.1626L30 40.3572ZM30 29.4055L48.1222 18.5251L43.7075 15.8758L30 24.1057L16.2925 15.8758L11.8779 18.5251L30 29.4055ZM30 17.4876L38.1948 12.5675L30 7.6496L21.8052 12.5675L30 17.4876Z" fill="#F1FF9D"/>
<path d="M30.0001 0L0 18.0119V29.9836L30 48L30.0001 0Z" fill="black" fill-opacity="0.3"/>
</g>
<path d="M81.6671 35V13.0245H96.7988V19.5544H89.2015V22.9449H96.0139V29.1922H89.2015V35H81.6671ZM99.2909 35V18.2672H106.449V35H99.2909ZM98.7572 12.428C98.7572 10.1049 100.39 8.50383 102.87 8.50383C105.287 8.50383 106.951 10.1049 106.951 12.428C106.951 14.7825 105.287 16.3836 102.87 16.3836C100.39 16.3836 98.7572 14.7825 98.7572 12.428ZM110.021 35V18.2672H115.107L115.798 20.0253C117.116 18.6126 119.031 17.8277 121.323 17.8277C125.655 17.8277 128.324 20.5904 128.324 25.0482V35H121.166V25.9273C121.166 24.389 120.475 23.5727 119.219 23.5727C117.932 23.5727 117.179 24.4204 117.179 26.0214V35H110.021ZM137.066 35V19.8997H130.693V13.0245H151.036V19.8997H144.663V35H137.066ZM152.482 35V18.2672H157.568L158.353 20.3078C159.451 18.8951 160.99 18.2672 163.156 18.2672H165.291V24.6401H163.093C160.644 24.6401 159.64 25.8017 159.64 28.219V35H152.482ZM172.479 35.4081C168.587 35.4081 166.169 33.3989 166.169 30.1654C166.169 27.0888 168.367 25.0482 171.851 25.0482H177.188V24.0436C177.188 23.196 176.404 22.5681 175.368 22.5681C174.394 22.5681 173.672 23.1332 173.578 23.9495H166.985C167.488 19.9311 170.407 17.8277 175.399 17.8277C181.05 17.8277 184.158 20.5276 184.158 25.5505V35H179.041L178.319 33.1792C176.906 34.6233 174.897 35.4081 172.479 35.4081ZM173.013 29.6631C173.013 30.4793 173.704 30.9816 174.771 30.9816C176.247 30.9816 177.283 30.0398 177.283 28.5643V28.3446H174.771C173.704 28.3446 173.013 28.8469 173.013 29.6631ZM196.128 35.4709C190.352 35.4709 186.396 31.8606 186.396 26.6493C186.396 21.438 190.383 17.8277 196.128 17.8277C201.402 17.8277 205.169 20.7473 205.766 25.3308H199.142C198.577 24.2006 197.572 23.6041 196.285 23.6041C194.527 23.6041 193.365 24.8285 193.365 26.6493C193.365 28.4701 194.527 29.6631 196.285 29.6631C197.666 29.6631 198.734 28.941 199.205 27.7167H205.86C205.264 32.4571 201.496 35.4709 196.128 35.4709ZM208.371 35V11.7688H215.529V23.4158H215.906C217.381 23.4158 217.915 23.0704 218.26 21.9089L219.39 18.2672H226.893L224.602 24.7029C224.256 25.6133 223.848 26.3982 223.346 27.0574L227.647 35H219.547L216.847 29.4433H215.529V35H208.371Z" fill="white"/>
<defs>
<clipPath id="clip0_1_1437">
<rect width="60" height="48" fill="white"/>
</clipPath>
</defs>
</svg>
