<svg width="149" height="60" viewBox="0 0 149 60" fill="none" xmlns="http://www.w3.org/2000/svg">
<path d="M90.7762 47.2961C82.6531 53.3104 70.8405 56.5133 60.6954 56.5133C46.4702 56.5133 33.6639 51.2463 23.9449 42.4563C23.1642 41.7797 23.8737 40.8189 24.7604 41.3527C35.2251 47.4734 48.1729 51.1394 61.5109 51.1394C70.5212 51.1394 80.4538 49.2531 89.5704 45.3742C90.9895 44.8047 92.1245 46.2994 90.7764 47.2958M94.1821 43.4171C93.1533 42.1003 87.2998 42.7764 84.6751 43.0968C83.8946 43.2039 83.7529 42.4914 84.4623 41.9932C89.1092 38.7198 96.736 39.6448 97.6229 40.7476C98.5094 41.8512 97.3746 49.5381 93.0113 53.2033C92.3376 53.7731 91.6992 53.4524 91.9832 52.7051C93.0113 50.2498 95.2111 44.7693 94.1821 43.4171ZM84.8524 18.8255V15.6229C84.8524 15.1247 85.2075 14.8045 85.6684 14.8045H99.8933C100.354 14.8045 100.709 15.1244 100.709 15.6226V18.3629C100.709 18.8255 100.319 19.4306 99.6452 20.3558L92.2666 30.9258C94.998 30.8543 97.9073 31.2812 100.39 32.6696C100.958 32.9897 101.1 33.4523 101.135 33.9151V37.2956C101.135 37.7582 100.639 38.2921 100.071 38.043C95.6724 35.7299 89.8547 35.4808 85.0307 38.0786C84.5341 38.3633 84.0017 37.7939 84.0017 37.3312V34.0928C84.0017 33.5589 84.0017 32.7052 84.5338 31.8863L93.0825 19.5726H85.6331C85.2075 19.6085 84.8526 19.2886 84.8526 18.8253M32.8842 38.7198H28.5561C28.1305 38.6839 27.8112 38.3992 27.7757 37.9725V15.6585C27.7757 15.1959 28.166 14.8399 28.6274 14.8399H32.6709C33.097 14.8758 33.4516 15.1962 33.4516 15.5873V18.5059H33.5224C34.5867 15.6944 36.5732 14.3776 39.2336 14.3776C41.9296 14.3776 43.6323 15.6944 44.8738 18.5059C45.9381 15.6941 48.3145 14.3773 50.8689 14.3773C52.6781 14.3773 54.6646 15.1247 55.8707 16.8328C57.2538 18.7194 56.9707 21.424 56.9707 23.8081V37.9012C56.9707 38.3282 56.5801 38.6842 56.119 38.6842H51.7909C51.3655 38.6486 51.0112 38.3279 51.0112 37.9012V26.0857C51.0112 25.1607 51.0817 22.8118 50.9044 21.9223C50.585 20.4276 49.5918 20.0006 48.3502 20.0006C47.2862 20.0006 46.2222 20.7123 45.7608 21.851C45.2994 22.9897 45.3705 24.8404 45.3705 26.1216V37.9371C45.3705 38.3638 44.9806 38.7198 44.5192 38.7198H40.1911C39.7658 38.6839 39.4109 38.3636 39.4109 37.9366V26.1211C39.4109 23.6299 39.8013 19.9647 36.7505 19.9647C33.6292 19.9647 33.7707 23.5236 33.7707 26.1213V37.9368C33.7352 38.3636 33.3809 38.7198 32.8842 38.7198ZM112.983 14.4129C119.404 14.4129 122.88 19.9647 122.88 27.0112C122.88 33.808 119.049 39.2178 112.983 39.2178C106.668 39.2178 103.228 33.6658 103.228 26.7621C103.228 19.8217 106.704 14.4127 112.983 14.4127M113.018 18.968C109.826 18.968 109.613 23.345 109.613 26.0498C109.613 28.7901 109.577 34.5912 112.983 34.5912C116.352 34.5912 116.495 29.8937 116.495 27.0465C116.495 25.1608 116.424 22.9187 115.856 21.1393C115.359 19.5734 114.402 18.9685 113.018 18.9685M131.251 38.7198H126.924C126.498 38.6839 126.144 38.3636 126.144 37.9366V15.6229C126.179 15.2318 126.533 14.9112 126.96 14.9112H130.968C131.358 14.9468 131.677 15.1959 131.748 15.5519V18.968H131.819C133.025 15.9076 134.728 14.4486 137.708 14.4486C139.659 14.4486 141.539 15.1603 142.745 17.0817C143.88 18.8614 143.88 21.8864 143.88 24.022V38.0432C143.845 38.4348 143.49 38.7549 143.064 38.7549H138.736C138.346 38.7196 138.027 38.4351 137.956 38.0435V25.944C137.956 23.4882 138.24 19.9293 135.224 19.9293C134.161 19.9293 133.203 20.6411 132.706 21.7088C132.103 23.061 132.032 24.4134 132.032 25.9437V37.9722C132.068 38.3638 131.713 38.7196 131.252 38.7196" fill="white"/>
<path d="M81.2342 34.6626C80.4537 33.559 79.6023 32.6697 79.6023 30.6411V23.8794C79.6023 21.0325 79.7801 18.3989 77.687 16.406C76.0198 14.8047 73.2529 14.2352 71.1598 14.2352C67.0453 14.2352 62.4341 15.7655 61.4756 20.8901C61.3696 21.4239 61.7597 21.7086 62.1145 21.7799L66.2998 22.2423C66.6897 22.2423 66.9738 21.8506 67.0448 21.4593C67.3999 19.7155 68.854 18.861 70.5212 18.861C71.4077 18.861 72.4367 19.1816 72.9688 20.0002C73.5722 20.8542 73.5009 22.0998 73.5009 23.1316V23.7013C70.9823 23.9861 67.6829 24.1639 65.3421 25.196C62.6461 26.3703 60.7304 28.7902 60.7304 32.3132C60.7304 36.7973 63.5686 39.0752 67.2223 39.0752C70.2731 39.0752 71.9758 38.3278 74.3527 35.9079C75.1324 37.0464 75.3807 37.5805 76.8358 38.7902C77.1546 38.9685 77.5807 38.9329 77.8638 38.6838C78.751 37.9008 80.3122 36.5484 81.2342 35.8011C81.5888 35.5163 81.518 35.0537 81.2342 34.6626ZM72.6847 32.6697C72.0111 33.8796 70.9113 34.6626 69.6697 34.6626C68.0028 34.6626 67.045 33.3814 67.045 31.4954C67.045 27.7935 70.3441 27.1177 73.5012 27.1177V28.0785C73.5012 29.7867 73.5367 31.175 72.6852 32.6697H72.6847ZM24.4415 34.627C23.6608 33.5234 22.8093 32.6341 22.8093 30.6055V23.8438C22.8093 20.9969 22.9866 18.3633 20.8939 16.3704C19.2269 14.7691 16.4597 14.1996 14.3667 14.1996C10.2521 14.1996 5.64016 15.7299 4.68242 20.8544C4.57614 21.3883 4.96624 21.673 5.32108 21.7443L9.50666 22.2425C9.89652 22.2425 10.1806 21.8509 10.2516 21.4595C10.6062 19.7157 12.0606 18.8613 13.728 18.8613C14.6502 18.8613 15.6435 19.1819 16.1756 20.0005C16.7785 20.8544 16.7078 22.1 16.7078 23.1318V23.7016C14.1891 23.9863 10.8898 24.1642 8.54892 25.1963C5.85223 26.3706 3.93698 28.7905 3.93698 32.3135C3.93698 36.7975 6.77521 39.0754 10.4287 39.0754C13.4794 39.0754 15.1821 38.3281 17.5587 35.9082C18.3392 37.0466 18.5875 37.5807 20.0419 38.7904C20.3612 38.9688 20.7868 38.9332 21.0707 38.6841C21.9576 37.9011 23.5183 36.5486 24.4408 35.7657C24.7596 35.4817 24.7239 35.0183 24.4408 34.6272L24.4415 34.627ZM15.8921 32.6697C15.2181 33.8796 14.1184 34.6626 12.8768 34.6626C11.2096 34.6626 10.2521 33.3814 10.2521 31.4954C10.2521 27.7935 13.5507 27.1177 16.7083 27.1177V28.0785C16.7083 29.7867 16.7435 31.175 15.8921 32.6697Z" fill="white"/>
</svg>
