<svg width="187" height="46" viewBox="0 0 187 46" fill="none" xmlns="http://www.w3.org/2000/svg">
<g clip-path="url(#clip0_1_1479)">
<path fill-rule="evenodd" clip-rule="evenodd" d="M16.299 10.6698H29.0627C35.9157 10.6698 38.4955 14.145 38.0968 19.2505C37.4379 27.6793 32.3508 32.3426 25.6033 32.3426H22.1965C21.2707 32.3426 20.648 32.9565 20.3976 34.6198L18.9512 44.2896C18.8557 44.9166 18.5262 45.2796 18.032 45.3292H10.0127C9.25819 45.3292 8.99132 44.7516 9.189 43.5008L14.0784 12.5015C14.2694 11.2606 14.9482 10.6698 16.299 10.6698Z" fill="#AEAEAE"/>
<path fill-rule="evenodd" clip-rule="evenodd" d="M71.7128 10.0955C76.019 10.0955 79.9924 12.4353 79.4487 18.2669C78.7898 25.1975 75.0833 29.0324 69.2351 29.0489H64.125C63.3903 29.0489 63.0345 29.6495 62.8434 30.8805L61.855 37.1741C61.7067 38.1246 61.2191 38.5932 60.5009 38.5932H55.7466C54.9888 38.5932 54.7252 38.1081 54.8933 37.0223L58.8173 11.7984C59.0117 10.5575 59.4762 10.0955 60.3229 10.0955H71.7029H71.7128ZM63.9702 23.6001H67.8415C70.2631 23.5077 71.8709 21.8279 72.0323 18.7982C72.1312 16.927 70.8693 15.5871 68.8628 15.597L65.2189 15.6135L63.9702 23.6001ZM92.3739 36.6626C92.8088 36.2665 93.2503 36.0619 93.1877 36.5504L93.0328 37.7186C92.9538 38.3292 93.1943 38.6526 93.761 38.6526H97.9848C98.6965 38.6526 99.0424 38.3655 99.217 37.2632L101.82 20.9005C101.952 20.0787 101.751 19.6761 101.128 19.6761H96.4824C96.064 19.6761 95.8597 19.9104 95.751 20.5507L95.5797 21.5573C95.4907 22.082 95.2502 22.1744 95.0261 21.6464C94.2387 19.7784 92.2289 18.9402 89.4251 19.0062C82.9115 19.1415 78.5196 24.0952 78.0485 30.4449C77.6861 35.3557 81.1982 39.2137 85.8306 39.2137C89.1912 39.2137 90.6936 38.2236 92.3871 36.6725L92.3739 36.6626ZM88.8354 34.1445C86.0316 34.1445 84.0778 31.9036 84.4831 29.1578C84.8883 26.412 87.5109 24.1711 90.3147 24.1711C93.1185 24.1711 95.0723 26.412 94.667 29.1578C94.2618 31.9036 91.6425 34.1445 88.8354 34.1445ZM110.086 19.6233H105.803C104.92 19.6233 104.561 20.2834 104.841 21.0952L110.159 36.6923L104.943 44.1145C104.505 44.735 104.844 45.2993 105.461 45.2993H110.274C110.555 45.3318 110.839 45.2828 111.092 45.1582C111.346 45.0336 111.558 44.8386 111.704 44.5964L128.059 21.0985C128.563 20.3758 128.326 19.6167 127.499 19.6167H122.942C122.161 19.6167 121.848 19.9269 121.4 20.5771L114.58 30.4779L111.533 20.554C111.355 19.9533 110.91 19.6233 110.09 19.6233H110.086Z" fill="white"/>
<path fill-rule="evenodd" clip-rule="evenodd" d="M145.073 10.0955C149.379 10.0955 153.352 12.4354 152.809 18.2669C152.15 25.1975 148.443 29.0324 142.595 29.0489H137.488C136.754 29.0489 136.398 29.6495 136.207 30.8805L135.218 37.1741C135.07 38.1246 134.582 38.5932 133.864 38.5932H129.11C128.352 38.5932 128.089 38.1081 128.257 37.0223L132.187 11.7918C132.382 10.5509 132.846 10.0889 133.693 10.0889H145.073V10.0955ZM137.33 23.6001H141.202C143.623 23.5077 145.231 21.8279 145.392 18.7983C145.491 16.927 144.229 15.5871 142.223 15.597L138.579 15.6135L137.33 23.6001ZM165.734 36.6626C166.169 36.2665 166.61 36.0619 166.548 36.5504L166.393 37.7187C166.314 38.3292 166.554 38.6526 167.121 38.6526H171.345C172.056 38.6526 172.402 38.3655 172.577 37.2632L175.18 20.9005C175.312 20.0788 175.111 19.6761 174.488 19.6761H169.849C169.431 19.6761 169.226 19.9104 169.118 20.5507L168.946 21.5573C168.857 22.082 168.617 22.1744 168.393 21.6464C167.605 19.7784 165.596 18.9402 162.792 19.0062C156.278 19.1415 151.886 24.0952 151.415 30.4449C151.053 35.3557 154.565 39.2137 159.197 39.2137C162.558 39.2137 164.06 38.2236 165.754 36.6725L165.734 36.6626ZM162.199 34.1445C159.395 34.1445 157.441 31.9036 157.846 29.1578C158.252 26.412 160.874 24.1711 163.678 24.1711C166.482 24.1711 168.436 26.412 168.03 29.1578C167.625 31.9036 165.003 34.1445 162.199 34.1445ZM181.68 38.679H176.804C176.719 38.6828 176.635 38.6678 176.556 38.6351C176.478 38.6023 176.408 38.5527 176.351 38.4896C176.294 38.4265 176.252 38.3517 176.227 38.2703C176.202 38.189 176.196 38.1031 176.208 38.019L180.491 10.838C180.532 10.6525 180.634 10.4863 180.781 10.3665C180.929 10.2467 181.112 10.1802 181.301 10.178H186.178C186.262 10.1742 186.347 10.1892 186.425 10.2219C186.504 10.2547 186.574 10.3044 186.631 10.3674C186.688 10.4305 186.73 10.5053 186.755 10.5867C186.78 10.6681 186.786 10.7539 186.774 10.838L182.491 38.019C182.451 38.2057 182.349 38.3734 182.202 38.4945C182.055 38.6157 181.871 38.6831 181.68 38.6856V38.679Z" fill="#C4C4C4"/>
<path fill-rule="evenodd" clip-rule="evenodd" d="M8.31618 0H21.0931C24.6909 0 28.9608 0.115509 31.8141 2.64021C33.7217 4.32664 34.7233 7.00975 34.4927 9.90078C33.7085 19.6729 27.8736 25.148 20.0454 25.148H13.7459C12.6718 25.148 11.9634 25.8608 11.6603 27.7882L9.90094 39.0091C9.78562 39.7351 9.47263 40.1642 8.91253 40.217H1.02828C0.155183 40.217 -0.154523 39.5569 0.0728121 38.0982L5.73972 2.13197C5.96705 0.686451 6.76108 0 8.31618 0Z" fill="#C4C4C4"/>
<path fill-rule="evenodd" clip-rule="evenodd" d="M11.8445 26.6497L14.075 12.5015C14.2694 11.2606 14.9481 10.6665 16.2989 10.6665H29.0627C31.1746 10.6665 32.8845 10.9965 34.2222 11.6071C32.9405 20.3066 27.323 25.1382 19.9692 25.1382H13.6796C12.8362 25.1415 12.2168 25.5639 11.8445 26.6497Z" fill="white"/>
</g>
<defs>
<clipPath id="clip0_1_1479">
<rect width="186.787" height="45.3291" fill="white"/>
</clipPath>
</defs>
</svg>
