<svg width="154" height="49" viewBox="0 0 154 49" fill="none" xmlns="http://www.w3.org/2000/svg">
<path fill-rule="evenodd" clip-rule="evenodd" d="M44.2579 5.53682C45.4356 5.34833 46.8017 5.25409 47.791 5.98448C48.4269 6.4557 48.6389 7.30389 48.5918 8.05785C48.6389 9.30658 48.0501 10.626 46.943 11.2857C45.9773 11.804 44.7761 11.8512 43.6926 11.7569C42.9624 11.6627 42.2322 11.2621 41.8554 10.6024C41.0074 8.64687 42.0674 5.9138 44.2579 5.53682Z" fill="white"/>
<path d="M44.2579 5.53682C45.4356 5.34833 46.8017 5.25409 47.791 5.98448C48.4269 6.4557 48.6389 7.30389 48.5918 8.05785C48.6389 9.30658 48.0501 10.626 46.943 11.2857C45.9773 11.804 44.7761 11.8512 43.6926 11.7569C42.9624 11.6627 42.2322 11.2621 41.8554 10.6024C41.0074 8.64687 42.0674 5.9138 44.2579 5.53682Z" stroke="white" stroke-width="1.36261" stroke-miterlimit="2.613"/>
<path fill-rule="evenodd" clip-rule="evenodd" d="M9.02109 6.927C9.09175 6.26729 9.6806 5.65471 10.3872 5.67827C15.4984 5.67827 20.6332 5.70183 25.7208 5.67827C26.2861 5.63115 26.875 5.86675 27.1576 6.36154C27.5345 7.02124 27.2047 7.7752 27.1576 8.4349C26.9928 9.37735 27.0399 10.6261 25.9564 10.9795C22.2349 11.0973 18.4898 10.9795 14.7683 11.0266C14.4149 13.3827 14.0852 15.7153 13.7319 18.0714C13.7319 18.142 13.7554 18.3541 13.7554 18.4483C16.4877 18.4248 19.22 18.4483 21.9522 18.4248C22.7059 18.3777 23.5068 19.0374 23.4361 19.8149C23.3655 20.6395 23.2006 21.4406 23.0592 22.2652C22.9886 22.8307 22.5411 23.3255 21.9522 23.4433C18.9138 23.5139 15.8282 23.3726 12.7897 23.5139C12.2951 26.8832 11.7298 30.2288 11.2116 33.5745C11.1409 34.2342 10.5992 34.8232 9.93969 34.8468C8.66778 34.8704 7.39586 34.8704 6.1475 34.8468C5.32311 34.8704 4.6636 33.9515 4.87559 33.174C6.24172 24.4328 7.6314 15.6917 9.02109 6.927Z" fill="white"/>
<path d="M9.02109 6.927C9.09175 6.26729 9.6806 5.65471 10.3872 5.67827C15.4984 5.67827 20.6332 5.70183 25.7208 5.67827C26.2861 5.63115 26.875 5.86675 27.1576 6.36154C27.5345 7.02124 27.2047 7.7752 27.1576 8.4349C26.9928 9.37735 27.0399 10.6261 25.9564 10.9795C22.2349 11.0973 18.4898 10.9795 14.7683 11.0266C14.4149 13.3827 14.0852 15.7153 13.7319 18.0714C13.7319 18.142 13.7554 18.3541 13.7554 18.4483C16.4877 18.4248 19.22 18.4483 21.9522 18.4248C22.7059 18.3777 23.5068 19.0374 23.4361 19.8149C23.3655 20.6395 23.2006 21.4406 23.0592 22.2652C22.9886 22.8307 22.5411 23.3255 21.9522 23.4433C18.9138 23.5139 15.8282 23.3726 12.7897 23.5139C12.2951 26.8832 11.7298 30.2288 11.2116 33.5745C11.1409 34.2342 10.5992 34.8232 9.93969 34.8468C8.66778 34.8704 7.39586 34.8704 6.1475 34.8468C5.32311 34.8704 4.6636 33.9515 4.87559 33.174C6.24172 24.4328 7.6314 15.6917 9.02109 6.927Z" stroke="white" stroke-width="1.36261" stroke-miterlimit="2.613"/>
<path fill-rule="evenodd" clip-rule="evenodd" d="M31.6093 5.72538C32.7634 5.63114 33.9411 5.70182 35.0952 5.67826C35.8019 5.63114 36.532 6.1966 36.5791 6.92699C36.5791 7.49245 36.4143 8.08148 36.3436 8.64694C35.4014 14.6079 34.4593 20.5688 33.5171 26.5062C33.3758 27.4722 33.1403 28.4853 33.4465 29.4749C33.7762 30.4409 35.2601 30.0403 35.6134 31.0535C35.849 31.8781 35.5899 32.7263 35.5192 33.5981C35.4486 34.7054 34.1766 34.9646 33.3287 35.2002C31.4444 35.5536 29.1596 35.2945 27.7935 33.7394C26.8043 32.6085 26.7571 31.0063 26.9456 29.5691C28.1233 22.006 29.301 14.443 30.5022 6.87987C30.5964 6.33796 31.0204 5.81962 31.6093 5.72538Z" fill="white"/>
<path d="M31.6093 5.72538C32.7634 5.63114 33.9411 5.70182 35.0952 5.67826C35.8019 5.63114 36.532 6.1966 36.5791 6.92699C36.5791 7.49245 36.4143 8.08148 36.3436 8.64694C35.4014 14.6079 34.4593 20.5688 33.5171 26.5062C33.3758 27.4722 33.1403 28.4853 33.4465 29.4749C33.7762 30.4409 35.2601 30.0403 35.6134 31.0535C35.849 31.8781 35.5899 32.7263 35.5192 33.5981C35.4486 34.7054 34.1766 34.9646 33.3287 35.2002C31.4444 35.5536 29.1596 35.2945 27.7935 33.7394C26.8043 32.6085 26.7571 31.0063 26.9456 29.5691C28.1233 22.006 29.301 14.443 30.5022 6.87987C30.5964 6.33796 31.0204 5.81962 31.6093 5.72538Z" stroke="white" stroke-width="1.36261" stroke-miterlimit="2.613"/>
<path fill-rule="evenodd" clip-rule="evenodd" d="M75.7024 6.92691C75.7731 6.2672 76.3619 5.67818 77.045 5.67818H80.4132C81.2612 5.65462 81.9442 6.57349 81.7558 7.35101C80.9785 12.2753 80.1777 17.2231 79.4004 22.1473C80.5781 21.9824 81.8971 21.7468 82.7451 20.8043C84.1112 19.2493 85.2418 17.4351 86.1133 15.5502C86.3959 14.8198 86.5608 13.7596 87.503 13.6182C88.7749 13.5711 90.0704 13.6182 91.3187 13.6182C92.1902 13.6182 92.8262 14.5842 92.5435 15.3853C92.2138 16.5634 91.6485 17.6472 91.0832 18.6839C89.8113 20.7808 88.3745 22.8542 86.5137 24.4799C87.3145 26.9302 88.3745 29.357 89.2931 31.7602C89.5522 32.5613 90.2117 33.5037 89.5993 34.2812C88.9162 35.2237 87.6207 34.7525 86.655 34.8703C85.6658 34.7525 84.2054 35.2708 83.6637 34.1399C82.6273 31.7131 81.7558 29.2392 80.6959 26.8124C80.0835 26.836 79.424 26.8595 78.8116 26.7888C78.7645 26.8831 78.6702 27.048 78.6231 27.1423C78.2934 29.3806 77.9401 31.5953 77.5868 33.81C77.469 34.3519 77.045 34.8231 76.4562 34.8467C75.2785 34.8938 74.0772 34.8703 72.876 34.8703C72.3578 34.8703 71.8867 34.5404 71.6747 34.0928C71.4392 33.6451 71.5805 33.1268 71.6512 32.6555C72.9937 24.0793 74.3363 15.5031 75.7024 6.92691Z" fill="white"/>
<path d="M75.7024 6.92691C75.7731 6.2672 76.3619 5.67818 77.045 5.67818H80.4132C81.2612 5.65462 81.9442 6.57349 81.7558 7.35101C80.9785 12.2753 80.1777 17.2231 79.4004 22.1473C80.5781 21.9824 81.8971 21.7468 82.7451 20.8043C84.1112 19.2493 85.2418 17.4351 86.1133 15.5502C86.3959 14.8198 86.5608 13.7596 87.503 13.6182C88.7749 13.5711 90.0704 13.6182 91.3187 13.6182C92.1902 13.6182 92.8262 14.5842 92.5435 15.3853C92.2138 16.5634 91.6485 17.6472 91.0832 18.6839C89.8113 20.7808 88.3745 22.8542 86.5137 24.4799C87.3145 26.9302 88.3745 29.357 89.2931 31.7602C89.5522 32.5613 90.2117 33.5037 89.5993 34.2812C88.9162 35.2237 87.6207 34.7525 86.655 34.8703C85.6658 34.7525 84.2054 35.2708 83.6637 34.1399C82.6273 31.7131 81.7558 29.2392 80.6959 26.8124C80.0835 26.836 79.424 26.8595 78.8116 26.7888C78.7645 26.8831 78.6702 27.048 78.6231 27.1423C78.2934 29.3806 77.9401 31.5953 77.5868 33.81C77.469 34.3519 77.045 34.8231 76.4562 34.8467C75.2785 34.8938 74.0772 34.8703 72.876 34.8703C72.3578 34.8703 71.8867 34.5404 71.6747 34.0928C71.4392 33.6451 71.5805 33.1268 71.6512 32.6555C72.9937 24.0793 74.3363 15.5031 75.7024 6.92691Z" stroke="white" stroke-width="1.36261" stroke-miterlimit="2.613"/>
<path fill-rule="evenodd" clip-rule="evenodd" d="M137.437 9.35371C137.602 8.71757 138.191 8.31702 138.803 8.34059C139.675 8.36415 140.617 8.31703 141.512 8.36415C142.242 8.38771 142.831 9.1181 142.737 9.82493C142.596 11.0972 142.289 12.346 142.195 13.6183C143.067 13.6183 143.962 13.6183 144.833 13.6183C145.61 13.6183 146.246 14.4193 146.129 15.1733C146.011 15.8801 145.846 16.5398 145.752 17.2231C145.634 17.7886 145.139 18.2598 144.598 18.354C143.538 18.4247 142.501 18.3069 141.441 18.4247C140.994 21.3934 140.499 24.3856 140.028 27.3543C139.958 28.0376 139.91 28.8151 140.311 29.4277C140.923 30.1581 141.96 29.8989 142.784 29.9932C143.444 30.1816 143.891 30.912 143.773 31.5953C143.679 32.3493 143.632 33.1032 143.444 33.8336C143.184 34.6582 142.242 34.7996 141.489 35.0117C139.463 35.5536 137.131 35.5536 135.341 34.3755C133.669 33.2446 133.41 31.0298 133.574 29.1685C134.045 25.5637 134.776 21.9824 135.176 18.354C134.54 18.3776 133.81 18.4718 133.339 17.9064C132.797 17.3409 133.08 16.5398 133.174 15.833C133.292 15.1026 133.292 14.1602 134.069 13.7596C134.705 13.524 135.435 13.6889 136.142 13.5947C136.589 12.181 136.99 10.7674 137.437 9.35371Z" fill="white"/>
<path d="M137.437 9.35371C137.602 8.71757 138.191 8.31702 138.803 8.34059C139.675 8.36415 140.617 8.31703 141.512 8.36415C142.242 8.38771 142.831 9.1181 142.737 9.82493C142.596 11.0972 142.289 12.346 142.195 13.6183C143.067 13.6183 143.962 13.6183 144.833 13.6183C145.61 13.6183 146.246 14.4193 146.129 15.1733C146.011 15.8801 145.846 16.5398 145.752 17.2231C145.634 17.7886 145.139 18.2598 144.598 18.354C143.538 18.4247 142.501 18.3069 141.441 18.4247C140.994 21.3934 140.499 24.3856 140.028 27.3543C139.958 28.0376 139.91 28.8151 140.311 29.4277C140.923 30.1581 141.96 29.8989 142.784 29.9932C143.444 30.1816 143.891 30.912 143.773 31.5953C143.679 32.3493 143.632 33.1032 143.444 33.8336C143.184 34.6582 142.242 34.7996 141.489 35.0117C139.463 35.5536 137.131 35.5536 135.341 34.3755C133.669 33.2446 133.41 31.0298 133.574 29.1685C134.045 25.5637 134.776 21.9824 135.176 18.354C134.54 18.3776 133.81 18.4718 133.339 17.9064C132.797 17.3409 133.08 16.5398 133.174 15.833C133.292 15.1026 133.292 14.1602 134.069 13.7596C134.705 13.524 135.435 13.6889 136.142 13.5947C136.589 12.181 136.99 10.7674 137.437 9.35371Z" stroke="white" stroke-width="1.36261" stroke-miterlimit="2.613"/>
<path fill-rule="evenodd" clip-rule="evenodd" d="M124.883 16.5634C126.273 15.1733 127.969 13.9952 129.9 13.4297C130.748 13.0528 131.831 13.7596 131.808 14.702C131.643 15.9272 131.36 17.1288 131.172 18.3304C131.078 18.9195 130.583 19.4378 129.971 19.5085C127.804 19.8855 125.896 21.2049 124.412 22.7599C124.035 23.2311 123.47 23.6552 123.399 24.3149C122.928 27.425 122.433 30.5586 121.962 33.6451C121.892 34.3048 121.303 34.9645 120.62 34.9174H117.228C116.451 34.9645 115.768 34.1634 115.862 33.3859C116.851 27.2129 117.817 21.0871 118.783 14.9377C118.83 14.3015 119.277 13.7125 119.913 13.6418C120.738 13.5947 121.562 13.6418 122.41 13.6418C123.069 13.6418 123.682 14.2308 123.682 14.9141C123.682 15.8801 123.588 16.8461 123.588 17.8121C124.106 17.4822 124.436 16.9639 124.883 16.5634Z" fill="white"/>
<path d="M124.883 16.5634C126.273 15.1733 127.969 13.9952 129.9 13.4297C130.748 13.0528 131.831 13.7596 131.808 14.702C131.643 15.9272 131.36 17.1288 131.172 18.3304C131.078 18.9195 130.583 19.4378 129.971 19.5085C127.804 19.8855 125.896 21.2049 124.412 22.7599C124.035 23.2311 123.47 23.6552 123.399 24.3149C122.928 27.425 122.433 30.5586 121.962 33.6451C121.892 34.3048 121.303 34.9645 120.62 34.9174H117.228C116.451 34.9645 115.768 34.1634 115.862 33.3859C116.851 27.2129 117.817 21.0871 118.783 14.9377C118.83 14.3015 119.277 13.7125 119.913 13.6418C120.738 13.5947 121.562 13.6418 122.41 13.6418C123.069 13.6418 123.682 14.2308 123.682 14.9141C123.682 15.8801 123.588 16.8461 123.588 17.8121C124.106 17.4822 124.436 16.9639 124.883 16.5634Z" stroke="white" stroke-width="1.36261" stroke-miterlimit="2.613"/>
<path fill-rule="evenodd" clip-rule="evenodd" d="M41.8316 13.7361C43.0329 13.5005 44.2813 13.6889 45.4825 13.6183C46.1656 13.5476 46.9193 13.9717 47.0135 14.6549C47.1077 15.2675 46.9193 15.8801 46.8486 16.4691C45.93 22.1945 45.035 27.8962 44.1399 33.598C44.0693 34.2341 43.5275 34.8703 42.8445 34.8703C41.6432 34.8703 40.442 34.8939 39.2407 34.8467C38.487 34.776 37.9217 33.8807 38.1337 33.1739C39.0758 27.2365 39.9944 21.3227 40.9366 15.3853C40.9837 14.7492 41.1721 13.9952 41.8316 13.7361Z" fill="white"/>
<path d="M41.8316 13.7361C43.0329 13.5005 44.2813 13.6889 45.4825 13.6183C46.1656 13.5476 46.9193 13.9717 47.0135 14.6549C47.1077 15.2675 46.9193 15.8801 46.8486 16.4691C45.93 22.1945 45.035 27.8962 44.1399 33.598C44.0693 34.2341 43.5275 34.8703 42.8445 34.8703C41.6432 34.8703 40.442 34.8939 39.2407 34.8467C38.487 34.776 37.9217 33.8807 38.1337 33.1739C39.0758 27.2365 39.9944 21.3227 40.9366 15.3853C40.9837 14.7492 41.1721 13.9952 41.8316 13.7361Z" stroke="white" stroke-width="1.36261" stroke-miterlimit="2.613"/>
<path fill-rule="evenodd" clip-rule="evenodd" d="M113.742 14.0188C110.421 13.4063 107.053 12.9586 103.684 13.2884C100.693 13.6654 97.6781 15.032 95.8174 17.4823C93.25 20.7337 92.4021 25.0925 92.9674 29.1214C93.2971 31.0534 94.1215 33.009 95.6996 34.2106C97.16 35.3416 99.1385 35.4829 100.929 35.2002C103.402 34.729 105.522 33.1268 107.241 31.3362C107.335 32.0901 107.17 32.8676 107.218 33.5745C107.241 34.2577 107.877 34.9175 108.56 34.8703H110.821C111.481 34.8703 112.046 34.2342 112.093 33.598C113.035 27.5664 114.001 21.5819 114.92 15.5739C115.085 14.8435 114.496 14.1131 113.742 14.0188ZM107.5 24.5035C106.629 26.1763 105.38 27.6842 103.967 28.9801C103.166 29.6398 102.13 30.3231 101.07 30.111C99.9864 29.8754 99.4918 28.768 99.2563 27.8256C98.691 25.3517 99.2092 22.6186 100.599 20.4746C101.235 19.4614 102.224 18.7075 103.378 18.4012C105.003 18.0006 106.699 18.1891 108.277 18.6368L108.348 18.731C108.16 20.663 107.783 22.5715 107.5 24.5035Z" fill="white"/>
<path d="M113.742 14.0188C110.421 13.4063 107.053 12.9586 103.684 13.2884C100.693 13.6654 97.6781 15.032 95.8174 17.4823C93.25 20.7337 92.4021 25.0925 92.9674 29.1214C93.2971 31.0534 94.1215 33.009 95.6996 34.2106C97.16 35.3416 99.1385 35.4829 100.929 35.2002C103.402 34.729 105.522 33.1268 107.241 31.3362C107.335 32.0901 107.17 32.8676 107.218 33.5745C107.241 34.2577 107.877 34.9175 108.56 34.8703H110.821C111.481 34.8703 112.046 34.2342 112.093 33.598C113.035 27.5664 114.001 21.5819 114.92 15.5739C115.085 14.8435 114.496 14.1131 113.742 14.0188ZM107.5 24.5035C106.629 26.1763 105.38 27.6842 103.967 28.9801C103.166 29.6398 102.13 30.3231 101.07 30.111C99.9864 29.8754 99.4918 28.768 99.2563 27.8256C98.691 25.3517 99.2092 22.6186 100.599 20.4746C101.235 19.4614 102.224 18.7075 103.378 18.4012C105.003 18.0006 106.699 18.1891 108.277 18.6368L108.348 18.731C108.16 20.663 107.783 22.5715 107.5 24.5035Z" stroke="white" stroke-width="1.36261" stroke-miterlimit="2.613"/>
<path fill-rule="evenodd" clip-rule="evenodd" d="M70.1199 21.1578C70.0964 18.943 69.484 16.6105 67.9294 14.9377C66.8695 13.7596 65.2678 13.1706 63.7133 13.1706C61.1459 13.0999 58.7198 14.3486 56.8355 16.045C56.4351 16.3749 56.1289 16.8697 55.6578 17.1524C55.6578 16.422 55.7285 15.668 55.7049 14.9377C55.7049 14.2308 55.069 13.6418 54.4094 13.6418H52.1483C51.4416 13.6418 50.8528 14.2779 50.8292 14.9377C49.416 23.8202 48.0028 32.7027 46.5895 41.6087C46.3775 42.4334 47.1077 43.2816 47.9557 43.258C49.204 43.2344 50.4524 43.3522 51.7007 43.1638C52.6665 42.9046 52.6665 41.7736 52.8078 40.949C53.1611 38.9934 53.3966 37.0379 53.6322 35.0588C58.0132 35.907 63.1009 35.3179 66.3513 32.0194C69.0129 29.0978 70.2613 25.0689 70.1199 21.1578ZM63.9017 23.3961C63.7604 25.4459 63.0302 27.4957 61.617 29.0036C59.7798 30.7707 56.9768 30.5115 54.7156 29.9225C54.6685 29.8518 54.5979 29.734 54.5743 29.6633C54.9276 27.7313 55.1161 25.7757 55.54 23.8673C56.7884 21.8175 58.2959 19.7677 60.4393 18.6367C61.2401 18.2598 62.3236 18.354 62.9124 19.0844C63.9017 20.2624 63.9959 21.9117 63.9017 23.3961Z" fill="white"/>
<path d="M70.1199 21.1578C70.0964 18.943 69.484 16.6105 67.9294 14.9377C66.8695 13.7596 65.2678 13.1706 63.7133 13.1706C61.1459 13.0999 58.7198 14.3486 56.8355 16.045C56.4351 16.3749 56.1289 16.8697 55.6578 17.1524C55.6578 16.422 55.7285 15.668 55.7049 14.9377C55.7049 14.2308 55.069 13.6418 54.4094 13.6418H52.1483C51.4416 13.6418 50.8528 14.2779 50.8292 14.9377C49.416 23.8202 48.0028 32.7027 46.5895 41.6087C46.3775 42.4334 47.1077 43.2816 47.9557 43.258C49.204 43.2344 50.4524 43.3522 51.7007 43.1638C52.6665 42.9046 52.6665 41.7736 52.8078 40.949C53.1611 38.9934 53.3966 37.0379 53.6322 35.0588C58.0132 35.907 63.1009 35.3179 66.3513 32.0194C69.0129 29.0978 70.2613 25.0689 70.1199 21.1578ZM63.9017 23.3961C63.7604 25.4459 63.0302 27.4957 61.617 29.0036C59.7798 30.7707 56.9768 30.5115 54.7156 29.9225C54.6685 29.8518 54.5979 29.734 54.5743 29.6633C54.9276 27.7313 55.1161 25.7757 55.54 23.8673C56.7884 21.8175 58.2959 19.7677 60.4393 18.6367C61.2401 18.2598 62.3236 18.354 62.9124 19.0844C63.9017 20.2624 63.9959 21.9117 63.9017 23.3961Z" stroke="white" stroke-width="1.36261" stroke-miterlimit="2.613"/>
</svg>
