<svg width="111" height="34" viewBox="0 0 111 34" fill="none" xmlns="http://www.w3.org/2000/svg">
<path d="M76.799 5.44545H73.9744V0.971804C73.9911 0.452392 73.5733 0.0167552 73.0552 0C73.0385 0 73.0218 0 73.005 0H72.8045C69.6456 0.837762 70.3309 5.11035 64.6149 5.44545H63.8628C63.3781 5.56274 63.0438 5.99837 63.0438 6.48427V11.3098C63.0271 11.913 63.5118 12.3989 64.1135 12.4156C64.1302 12.4156 64.1302 12.4156 64.1469 12.4156H67.1052V32.8905C67.1052 33.5105 67.5899 33.9126 68.2083 33.9126H73.0886C73.6736 33.9293 74.175 33.477 74.1917 32.8905V12.4826H76.9327C77.5344 12.4826 78.0191 11.9967 78.0358 11.3936V11.3768V6.5513C77.9021 5.93135 77.4174 5.44545 76.799 5.44545ZM110.493 9.78506C109.424 6.86965 106.649 4.92604 103.557 4.95955H103.49C101.502 4.94279 99.5962 5.73029 98.1923 7.15448C96.8051 5.73029 94.883 4.92604 92.8941 4.95955H92.8273C91.0723 4.9763 89.3843 5.57949 88.0138 6.68534V6.13241C87.9636 5.56274 87.4789 5.14386 86.9107 5.17737H81.9635C81.3618 5.17737 80.8771 5.64651 80.8604 6.2497V6.26646V32.8905C80.8604 33.4937 81.3284 33.9796 81.9301 33.9964C81.9468 33.9964 81.9468 33.9964 81.9635 33.9964H86.9107C87.4288 33.9796 87.8801 33.611 88.0138 33.1083V13.5717C88.0806 12.7507 88.699 12.0638 89.7185 11.98H90.6211C91.0055 11.9967 91.3565 12.1475 91.6406 12.3989C92.0584 12.734 92.3258 13.2366 92.3426 13.7728V32.8738C92.3426 33.4937 92.8273 33.8958 93.4457 33.8958H98.3928C98.9778 33.8958 99.4458 33.4434 99.4959 32.8738V13.7728C99.4792 13.1529 99.7968 12.5832 100.315 12.2648C100.582 12.0973 100.9 12.0135 101.217 11.98H102.103C103.056 12.0303 103.825 12.8178 103.825 13.7728V32.8738C103.825 33.4937 104.309 33.8958 104.928 33.8958H109.875C110.46 33.9126 110.961 33.4602 110.978 32.8738V12.3486C110.928 11.4773 110.761 10.6061 110.493 9.78506ZM31.6224 5.57949H24.6863C24.1013 5.56274 23.5999 6.03188 23.5832 6.61832V11.092C23.5999 11.7119 24.1348 12.2146 24.7532 12.1978H31.4887C32.0235 12.2648 32.4247 12.7005 32.4581 13.2366V13.9236C32.408 14.443 32.0068 14.8619 31.4887 14.9457H28.1962C23.8005 14.9457 20.7085 17.7773 20.7085 21.765V27.0765C20.7085 31.081 23.3827 33.8958 27.7115 33.8958H36.8036C38.4415 33.8958 39.7619 32.723 39.7619 31.215V12.9685C39.7452 8.42788 37.3384 5.59625 31.6224 5.57949ZM32.4581 26.1884V27.0932C32.3912 27.1602 32.3912 27.1602 32.3912 27.2272C32.2575 27.7132 31.8397 27.9812 31.2882 27.9812H29.2324C28.614 27.998 28.0792 27.4953 28.0624 26.8754V22.7536C28.0792 22.1337 28.614 21.631 29.2324 21.6478H31.2882C31.9066 21.631 32.4247 22.1337 32.4581 22.7536V26.1884ZM11.4158 14.3425V17.3082C11.3991 17.9281 10.8643 18.4308 10.2459 18.414H7.08701V12.4156H10.2459C10.8643 12.3989 11.3824 12.8848 11.4158 13.5215V14.3425ZM11.8336 5.44545H1.03672C0.468464 5.46221 0.0171977 5.9146 0.000484162 6.48427V32.8905C-0.0162293 33.4602 0.401606 33.9293 0.969865 33.9964H5.98391C6.56889 34.0131 7.07029 33.5607 7.08701 32.9575V25.4344H11.8336C15.7613 25.4344 18.5023 22.7368 18.5023 18.8831V12.0638C18.5023 8.14304 15.7446 5.44545 11.8336 5.44545ZM59.066 5.44545H54.1188C53.5338 5.42869 53.0324 5.89784 53.0157 6.48427V16.5374C52.999 17.1741 52.4809 17.66 51.8458 17.6433H49.79C49.1549 17.66 48.6368 17.1574 48.6201 16.5374V6.5513C48.6201 5.93135 48.1354 5.51247 47.5337 5.51247H42.6533C42.0684 5.49572 41.567 5.96486 41.5502 6.5513V17.5092C41.5502 21.6478 44.5754 24.6134 48.8373 24.6134H52.1466C52.7149 24.6805 53.1494 25.1496 53.1828 25.7193C53.1828 26.3057 52.7316 26.7749 52.1466 26.8251H44.8595C44.2745 26.8084 43.7731 27.2775 43.7564 27.8639V32.8235C43.7564 33.4434 44.2411 33.8623 44.8595 33.8623H52.9656C57.2275 33.8623 60.2526 30.8966 60.2526 26.7581V6.4005C60.1189 5.84758 59.6342 5.42869 59.066 5.44545Z" fill="white"/>
</svg>
