<svg width="162" height="47" viewBox="0 0 162 47" fill="none" xmlns="http://www.w3.org/2000/svg">
<circle cx="23.2477" cy="23.2477" r="22.7477" stroke="white"/>
<circle cx="80.902" cy="23.2477" r="22.7477" stroke="white"/>
<circle cx="138.556" cy="23.2477" r="22.7477" stroke="white"/>
<path d="M153.673 14.421C152.545 14.9102 151.353 15.2335 150.133 15.381C151.42 14.612 152.385 13.4022 152.848 11.976C151.638 12.6961 150.314 13.2035 148.933 13.476C148.01 12.4749 146.78 11.8085 145.438 11.5813C144.095 11.3541 142.715 11.5791 141.514 12.2208C140.312 12.8625 139.358 13.8848 138.801 15.1273C138.243 16.3697 138.114 17.7621 138.433 19.086C135.987 18.9623 133.595 18.3254 131.411 17.2168C129.227 16.1082 127.301 14.5526 125.758 12.651C125.217 13.5963 124.932 14.6668 124.933 15.756C124.931 16.7676 125.179 17.7639 125.655 18.6564C126.132 19.5488 126.821 20.3096 127.663 20.871C126.685 20.8444 125.728 20.582 124.873 20.106V20.181C124.88 21.5984 125.377 22.9697 126.279 24.063C127.181 25.1563 128.433 25.9045 129.823 26.181C129.288 26.3439 128.732 26.4297 128.173 26.436C127.786 26.4315 127.399 26.3964 127.018 26.331C127.414 27.5502 128.18 28.6157 129.209 29.3793C130.239 30.1428 131.481 30.5663 132.763 30.591C130.599 32.2939 127.927 33.2233 125.173 33.231C124.671 33.2327 124.17 33.2026 123.673 33.141C126.484 34.9564 129.761 35.9201 133.108 35.916C135.417 35.94 137.709 35.5035 139.848 34.6321C141.986 33.7607 143.93 32.4718 145.566 30.8408C147.201 29.2097 148.495 27.2691 149.372 25.1324C150.249 22.9956 150.691 20.7056 150.673 18.396C150.673 18.141 150.673 17.871 150.673 17.601C151.85 16.7232 152.865 15.6472 153.673 14.421Z" fill="white"/>
<path d="M88.1489 14.3391C87.8166 14.3391 87.4918 14.4376 87.2155 14.6222C86.9392 14.8068 86.7239 15.0692 86.5967 15.3762C86.4696 15.6832 86.4363 16.021 86.5011 16.3469C86.566 16.6728 86.726 16.9721 86.9609 17.2071C87.1959 17.442 87.4952 17.602 87.8211 17.6668C88.147 17.7317 88.4848 17.6984 88.7918 17.5712C89.0987 17.4441 89.3611 17.2287 89.5457 16.9525C89.7303 16.6762 89.8289 16.3514 89.8289 16.0191C89.8289 15.5736 89.6519 15.1462 89.3368 14.8312C89.0217 14.5161 88.5944 14.3391 88.1489 14.3391ZM94.5889 17.7271C94.5616 16.5655 94.3441 15.4163 93.9449 14.3251C93.5889 13.3915 93.0348 12.5461 92.3209 11.8471C91.6276 11.1295 90.7802 10.579 89.8428 10.2371C88.7546 9.82574 87.604 9.60321 86.4409 9.57912C84.9569 9.49512 84.4809 9.49512 80.6729 9.49512C76.8649 9.49512 76.3889 9.49512 74.9049 9.57912C73.7417 9.60321 72.5911 9.82574 71.5029 10.2371C70.5672 10.5824 69.7206 11.1325 69.0249 11.8471C68.3072 12.5404 67.7567 13.3877 67.4149 14.3251C67.0035 15.4134 66.7809 16.5639 66.7569 17.7271C66.6729 19.2111 66.6729 19.6871 66.6729 23.4951C66.6729 27.3031 66.6729 27.7791 66.7569 29.2631C66.7809 30.4263 67.0035 31.5768 67.4149 32.6651C67.7567 33.6025 68.3072 34.4499 69.0249 35.1431C69.7206 35.8577 70.5672 36.4078 71.5029 36.7531C72.5911 37.1645 73.7417 37.387 74.9049 37.4111C76.3889 37.4951 76.8649 37.4951 80.6729 37.4951C84.4809 37.4951 84.9569 37.4951 86.4409 37.4111C87.604 37.387 88.7546 37.1645 89.8428 36.7531C90.7802 36.4113 91.6276 35.8607 92.3209 35.1431C93.038 34.4467 93.5925 33.6006 93.9449 32.6651C94.3441 31.574 94.5616 30.4247 94.5889 29.2631C94.5889 27.7791 94.6729 27.3031 94.6729 23.4951C94.6729 19.6871 94.6729 19.2111 94.5889 17.7271ZM92.0688 29.0951C92.0587 29.9838 91.8977 30.8643 91.5928 31.6991C91.3693 32.3084 91.0103 32.8589 90.5429 33.3091C90.0888 33.7718 89.5394 34.1301 88.9328 34.3591C88.098 34.664 87.2175 34.8249 86.3289 34.8351C84.9289 34.9051 84.4109 34.9191 80.7289 34.9191C77.0469 34.9191 76.5289 34.9191 75.1289 34.8351C74.2061 34.8524 73.2873 34.7103 72.4129 34.4151C71.8329 34.1744 71.3087 33.817 70.8729 33.3651C70.4082 32.9154 70.0536 32.3644 69.8369 31.7551C69.4951 30.9083 69.3055 30.0078 69.2769 29.0951C69.2769 27.6951 69.1929 27.1771 69.1929 23.4951C69.1929 19.8131 69.1929 19.2951 69.2769 17.8951C69.2831 16.9866 69.449 16.0862 69.7669 15.2351C70.0133 14.6442 70.3916 14.1174 70.8729 13.6951C71.2982 13.2138 71.8239 12.8315 72.4129 12.5751C73.2662 12.2672 74.1656 12.1062 75.0729 12.0991C76.4729 12.0991 76.9909 12.0151 80.6729 12.0151C84.3549 12.0151 84.8729 12.0151 86.2729 12.0991C87.1615 12.1093 88.042 12.2703 88.8769 12.5751C89.5131 12.8112 90.0841 13.1951 90.5429 13.6951C91.0016 14.1252 91.3601 14.6509 91.5928 15.2351C91.904 16.0876 92.0651 16.9876 92.0688 17.8951C92.1389 19.2951 92.1529 19.8131 92.1529 23.4951C92.1529 27.1771 92.1389 27.6951 92.0688 29.0951ZM80.6729 16.3131C79.253 16.3159 77.8658 16.7395 76.6866 17.5303C75.5073 18.3212 74.589 19.4438 74.0475 20.7564C73.5061 22.069 73.3659 23.5126 73.6446 24.9048C73.9233 26.2971 74.6084 27.5755 75.6134 28.5785C76.6183 29.5815 77.8981 30.2641 79.2909 30.5401C80.6836 30.8161 82.127 30.6731 83.4385 30.1291C84.75 29.5851 85.8709 28.6645 86.6594 27.4838C87.448 26.303 87.8688 24.915 87.8689 23.4951C87.8707 22.5503 87.6857 21.6144 87.3246 20.7413C86.9634 19.8681 86.4332 19.0751 85.7645 18.4076C85.0957 17.7401 84.3016 17.2115 83.4278 16.852C82.554 16.4926 81.6177 16.3094 80.6729 16.3131ZM80.6729 28.1571C79.7508 28.1571 78.8494 27.8837 78.0828 27.3714C77.3161 26.8592 76.7186 26.1311 76.3657 25.2792C76.0129 24.4273 75.9205 23.4899 76.1004 22.5856C76.2803 21.6813 76.7243 20.8506 77.3763 20.1986C78.0283 19.5466 78.859 19.1026 79.7633 18.9227C80.6677 18.7428 81.6051 18.8351 82.4569 19.188C83.3088 19.5408 84.0369 20.1384 84.5492 20.905C85.0614 21.6717 85.3349 22.5731 85.3349 23.4951C85.3349 24.1073 85.2143 24.7136 84.98 25.2792C84.7457 25.8448 84.4023 26.3587 83.9694 26.7916C83.5365 27.2246 83.0225 27.568 82.4569 27.8022C81.8913 28.0365 81.2851 28.1571 80.6729 28.1571Z" fill="white"/>
<path d="M28.126 8.37842H35.1416C35.1455 8.37842 35.1497 8.37891 35.1533 8.38037C35.1571 8.38193 35.1612 8.3843 35.1641 8.38721C35.1669 8.3901 35.1693 8.39412 35.1709 8.39795C35.1724 8.40162 35.1728 8.40568 35.1729 8.40967V15.7817C35.1728 15.7902 35.169 15.7983 35.1631 15.8042C35.1573 15.8099 35.1497 15.8129 35.1416 15.813H29.0049C27.9852 15.813 27.1583 16.64 27.1582 17.6597V20.8384H35.1416C35.1497 20.8385 35.1572 20.8423 35.1631 20.8481C35.169 20.8541 35.1729 20.862 35.1729 20.8706V28.3589C35.1728 28.3673 35.169 28.3754 35.1631 28.3813C35.1573 28.3871 35.1497 28.39 35.1416 28.3901H27.6895V45.3218C27.6895 45.3303 27.6866 45.3392 27.6807 45.3452C27.6748 45.3511 27.6664 45.3539 27.6582 45.354H20.584C20.5758 45.354 20.5674 45.351 20.5615 45.3452C20.5556 45.3392 20.5518 45.3303 20.5518 45.3218V28.3901H15.2041C15.1959 28.39 15.1885 28.3862 15.1826 28.3804C15.1767 28.3744 15.1729 28.3665 15.1729 28.3579V20.8696C15.1729 20.8612 15.1767 20.8531 15.1826 20.8472C15.1884 20.8415 15.1961 20.8385 15.2041 20.8384H20.5518V17.3022C20.5518 17.2993 20.5521 17.2963 20.5527 17.2935L20.5664 17.2358V17.1772C20.5683 15.029 20.8046 12.8345 21.8418 11.1812C22.8491 9.57555 24.6719 8.39112 28.0801 8.38037H28.1035L28.126 8.37842Z" fill="white" stroke="white"/>
</svg>
